<svg width="314" height="314" viewBox="0 0 314 314" fill="none" xmlns="http://www.w3.org/2000/svg">
<path d="M156.689 231.68C198.111 231.68 231.689 198.101 231.689 156.68C231.689 115.258 198.111 81.6797 156.689 81.6797C115.268 81.6797 81.6895 115.258 81.6895 156.68C81.6895 198.101 115.268 231.68 156.689 231.68Z" fill="#ffffaf"/>
<path d="M156.69 313.38C143.5 313.38 132.78 302.65 132.78 289.47C132.78 279.37 139.19 270.31 148.73 266.93L151.66 265.89V209.84H121.9L104.55 243.92C103.69 245.62 101.97 246.67 100.06 246.67H47.5L46.46 249.6C43.08 259.14 34.0199 265.55 23.9199 265.55C10.7299 265.55 0.0100098 254.82 0.0100098 241.64C0.0100098 228.45 10.7399 217.73 23.9199 217.73C34.0199 217.73 43.08 224.14 46.46 233.68L47.5 236.61H96.98L110.6 209.85H103.08C86.9398 209.85 73.8198 196.26 73.8198 179.56C73.8198 166.04 82.6099 154.04 95.1899 150.39L98.3398 149.47L98.3599 146.19C98.4399 134.92 102.72 124.29 110.41 116.26L112.41 114.17L96.71 76.76H47.49L46.45 79.69C43.07 89.23 34.0099 95.64 23.9099 95.64C10.7199 95.64 0 84.91 0 71.73C0 58.54 10.7299 47.82 23.9099 47.82C34.0099 47.82 43.07 54.23 46.45 63.77L47.49 66.7H100.05C102.08 66.7 103.91 67.91 104.69 69.79L120.76 108.1L124.79 106.47C129.6 104.52 134.64 103.54 139.78 103.54C142.02 103.54 144.28 103.73 146.5 104.11L151.65 104.99V47.49L148.72 46.45C139.18 43.07 132.77 34.01 132.77 23.91C132.77 10.72 143.5 0 156.68 0C169.86 0 180.59 10.73 180.59 23.91C180.59 34.01 174.18 43.07 164.64 46.45L161.71 47.49V110.01L163.53 111.33C167.9 114.5 171.58 118.42 174.48 123L176.23 125.76L179.38 124.89C181.42 124.32 183.55 124.03 185.69 124.03C186.57 124.03 187.45 124.08 188.33 124.17L191.92 124.56L209.14 70.21C209.81 68.11 211.73 66.7 213.94 66.7H265.87L266.91 63.77C270.29 54.23 279.35 47.82 289.45 47.82C302.64 47.82 313.36 58.55 313.36 71.73C313.36 84.92 302.63 95.64 289.45 95.64C279.35 95.64 270.29 89.23 266.91 79.69L265.87 76.76H217.62L200.95 129.35L202.82 131.24C206.65 135.12 209.17 140.26 209.91 145.7L210.37 149.06L213.74 149.47C228.45 151.27 239.55 164.2 239.55 179.55C239.55 196.2 226.46 209.79 210.37 209.84L203.15 209.86L216.99 236.6H265.86L266.9 233.67C270.28 224.13 279.34 217.72 289.44 217.72C302.63 217.72 313.35 228.45 313.35 241.63C313.35 254.82 302.62 265.54 289.44 265.54C279.34 265.54 270.28 259.13 266.9 249.59L265.86 246.66H213.93C212.04 246.66 210.33 245.62 209.46 243.94L191.8 209.83H161.69V265.87L164.62 266.91C174.16 270.29 180.57 279.35 180.57 289.45C180.6 302.65 169.88 313.38 156.69 313.38ZM156.69 275.62C149.06 275.62 142.84 281.83 142.84 289.47C142.84 297.1 149.05 303.32 156.69 303.32C164.33 303.32 170.54 297.11 170.54 289.47C170.54 281.83 164.32 275.62 156.69 275.62ZM289.48 227.79C281.85 227.79 275.63 234 275.63 241.64C275.63 249.27 281.84 255.49 289.48 255.49C297.12 255.49 303.32 249.28 303.32 241.64C303.32 234 297.11 227.79 289.48 227.79ZM23.8999 227.79C16.2699 227.79 10.0601 234 10.0601 241.64C10.0601 249.27 16.2699 255.49 23.8999 255.49C31.5299 255.49 37.75 249.28 37.75 241.64C37.75 234 31.5399 227.79 23.8999 227.79ZM103.04 159.33C92.47 159.33 83.8699 168.4 83.8699 179.55C83.8699 190.7 92.4801 199.77 103.06 199.77H210.31C220.89 199.77 229.5 190.7 229.5 179.55C229.5 168.39 220.9 159.32 210.33 159.32C208.75 159.32 207.16 159.53 205.61 159.94C205.17 160.06 204.72 160.12 204.28 160.12C202.74 160.12 201.25 159.36 200.28 158.08C199.72 157.34 198.87 155.78 199.48 153.68C200.88 148.84 200 143.82 197.06 139.91C194.3 136.24 190.05 134.04 185.68 134.04C182.59 134.04 179.62 135.12 177.09 137.16C175.95 138.08 174.76 138.27 173.96 138.27C171.79 138.27 169.92 136.96 169.19 134.93C164.62 122.16 152.81 113.57 139.8 113.57C130.65 113.57 121.98 117.75 116.01 125.05C109.58 132.9 107.06 143.21 109.09 153.33C109.39 154.81 109.01 156.33 108.05 157.51C107.09 158.68 105.67 159.36 104.15 159.36C104.07 159.36 103.99 159.36 103.91 159.35C103.63 159.34 103.34 159.33 103.04 159.33ZM289.48 57.87C281.85 57.87 275.63 64.08 275.63 71.72C275.63 79.35 281.84 85.57 289.48 85.57C297.12 85.57 303.32 79.36 303.32 71.72C303.32 64.08 297.11 57.87 289.48 57.87ZM23.8999 57.87C16.2699 57.87 10.0601 64.08 10.0601 71.72C10.0601 79.35 16.2699 85.57 23.8999 85.57C31.5299 85.57 37.75 79.36 37.75 71.72C37.75 64.08 31.5399 57.87 23.8999 57.87ZM156.69 10.04C149.06 10.04 142.84 16.25 142.84 23.89C142.84 31.52 149.05 37.74 156.69 37.74C164.33 37.74 170.54 31.53 170.54 23.89C170.54 16.25 164.32 10.04 156.69 10.04Z" fill="#000000"/>
</svg>
