<svg width="314" height="314" viewBox="0 0 314 314" fill="none" xmlns="http://www.w3.org/2000/svg">
<path d="M156.68 231.681C198.101 231.681 231.68 198.102 231.68 156.681C231.68 115.259 198.101 81.6807 156.68 81.6807C115.258 81.6807 81.6797 115.259 81.6797 156.681C81.6797 198.102 115.258 231.681 156.68 231.681Z" fill="#ffffaf"/>
<path d="M251.71 313.39C248.93 313.39 246.68 311.13 246.68 308.36V251.72C246.68 248.94 248.94 246.69 251.71 246.69H274.37V218.37H194.45C191.67 218.37 189.42 216.11 189.42 213.34V180.62H161.73V246.7H185.01C187.79 246.7 190.04 248.96 190.04 251.73V308.37C190.04 311.15 187.78 313.4 185.01 313.4H128.37C125.59 313.4 123.34 311.14 123.34 308.37V251.73C123.34 248.95 125.6 246.7 128.37 246.7H151.65V180.62H123.96V213.34C123.96 216.12 121.7 218.37 118.93 218.37H39.01V246.69H61.6699C64.4499 246.69 66.7 248.95 66.7 251.72V308.36C66.7 311.14 64.4399 313.39 61.6699 313.39H5.03003C2.25003 313.39 0 311.13 0 308.36V251.72C0 248.94 2.26003 246.69 5.03003 246.69H28.9399V213.34C28.9399 210.56 31.2 208.31 33.97 208.31H113.89V180.62H90.6099C61.8099 180.62 38.3799 157.19 38.3799 128.39C38.3799 115.98 42.8199 103.95 50.8899 94.5C58.8699 85.16 69.8899 78.9 81.9099 76.88L85.6599 76.25L85.5898 72.45C85.2298 53.24 92.46 35.1 105.95 21.34C119.45 7.58003 137.47 0 156.69 0C177.19 0 196.71 8.89001 210.25 24.39C223.76 39.86 229.92 60.4 227.16 80.75L226.53 85.38L231.18 85.7401C255.75 87.6401 275 108.44 275 133.11C275 145.55 270.14 157.3 261.3 166.2C252.52 175.05 240.77 180.17 228.2 180.62C227.08 180.63 210.34 180.63 203.88 180.63H199.48V208.32H279.4C282.18 208.32 284.43 210.58 284.43 213.35V246.7H308.34C311.12 246.7 313.37 248.96 313.37 251.73V308.37C313.37 311.15 311.11 313.4 308.34 313.4H251.71V313.39ZM256.74 303.32H303.31V256.75H256.74V303.32ZM133.4 303.32H179.97V256.75H133.4V303.32ZM10.05 303.32H56.6199V256.75H10.05V303.32ZM89.96 86.2C67.06 86.2 48.4399 105.12 48.4399 128.37C48.4399 151.62 67.3499 170.53 90.5999 170.53H227.49L227.75 170.52C248.25 170.37 264.92 153.58 264.92 133.08C264.92 112.43 248.15 95.63 227.54 95.63C225.21 95.63 222.84 95.85 220.52 96.29C220.19 96.35 219.87 96.38 219.55 96.38C217.96 96.38 216.49 95.62 215.52 94.29C214.96 93.52 214.12 91.92 214.8 89.8C220.83 71.05 217.62 51.14 205.99 35.17C194.35 19.2 176.38 10.04 156.68 10.04C138.88 10.04 122.01 17.8 110.38 31.34C98.7499 44.88 93.6398 62.77 96.3398 80.41C96.5598 81.84 96.16 83.27 95.24 84.35C94.52 85.19 93.16 86.19 90.78 86.19C90.78 86.2 90.19 86.2 89.96 86.2Z" fill="#000000"/>
</svg>
