<svg width="232" height="314" viewBox="0 0 232 314" fill="none" xmlns="http://www.w3.org/2000/svg">
<path d="M115.789 231.699C157.21 231.699 190.789 198.121 190.789 156.699C190.789 115.278 157.21 81.6992 115.789 81.6992C74.3677 81.6992 40.7891 115.278 40.7891 156.699C40.7891 198.121 74.3677 231.699 115.789 231.699Z" fill="#ffffaf"/>
<path d="M5.03 313.4C2.25 313.4 0 311.14 0 308.37V5.04999C0 2.26999 2.26 0.0199585 5.03 0.0199585C86.75 0.0199585 128.28 0.01 149.38 0C149.38 0 166.11 0 166.76 0V0.0299683H171.17C172.53 0.0299683 173.8 0.559959 174.75 1.51996L230.13 57.53C231.06 58.47 231.58 59.7299 231.58 61.0699V65.47H231.61C231.61 69.89 231.61 78.6299 231.61 95.3799C231.6 127.35 231.59 189.1 231.59 308.37C231.59 311.15 229.33 313.4 226.56 313.4H5.03ZM10.06 303.33H221.5V66.09H171.16C168.38 66.09 166.13 63.83 166.13 61.06V10.09H10.06V303.33ZM176.19 56.02H214.48L176.19 17.3V56.02Z" fill="#000000"/>
<path d="M45.2995 247.32C42.5195 247.32 40.2695 245.06 40.2695 242.29C40.2695 239.51 42.5295 237.26 45.2995 237.26H50.3295V202.02C50.3295 199.24 52.5895 196.99 55.3595 196.99H90.5995V166.78C90.5995 164 92.8595 161.75 95.6295 161.75H130.87V131.54C130.87 128.76 133.13 126.51 135.9 126.51H176.17C178.95 126.51 181.2 128.77 181.2 131.54V237.26H191.27C194.05 237.26 196.3 239.52 196.3 242.29C196.3 245.07 194.04 247.32 191.27 247.32H45.2995ZM140.95 237.26H171.16V136.57H140.95V237.26ZM100.68 237.26H130.89V171.81H100.68V237.26ZM60.3995 237.26H90.6095V207.05H60.3995V237.26Z" fill="#000000"/>
<path d="M45.2995 71.1303C42.5195 71.1303 40.2695 68.8703 40.2695 66.1003C40.2695 63.3203 42.5295 61.0703 45.2995 61.0703H90.6095C93.3895 61.0703 95.6395 63.3303 95.6395 66.1003C95.6395 68.8803 93.3795 71.1303 90.6095 71.1303H45.2995Z" fill="#000000"/>
<path d="M45.2995 106.37C42.5195 106.37 40.2695 104.11 40.2695 101.34C40.2695 98.5695 42.5295 96.3096 45.2995 96.3096H90.6095C93.3895 96.3096 95.6395 98.5695 95.6395 101.34C95.6395 104.11 93.3795 106.37 90.6095 106.37H45.2995Z" fill="#000000"/>
</svg>
