<svg width="303" height="314" viewBox="0 0 303 314" fill="none" xmlns="http://www.w3.org/2000/svg">
<path d="M151.029 231.69C192.451 231.69 226.029 198.112 226.029 156.69C226.029 115.269 192.451 81.6904 151.029 81.6904C109.608 81.6904 76.0293 115.269 76.0293 156.69C76.0293 198.112 109.608 231.69 151.029 231.69Z" fill="#ffffaf"/>
<path d="M59.15 313.4C45.96 313.4 35.24 302.67 35.24 289.49V252.36H23.91C10.72 252.36 0 241.63 0 228.45V115.16C0 101.97 10.73 91.25 23.91 91.25H35.24V23.9099C35.24 10.7199 45.97 0 59.15 0H184.82C196.51 0 207.83 4.86985 215.88 13.3499L255.09 54.71C262.66 62.69 266.83 73.1499 266.83 84.1499V91.25H278.16C291.35 91.25 302.07 101.98 302.07 115.16V228.44C302.07 241.63 291.34 252.35 278.16 252.35H266.83V289.48C266.83 302.67 256.1 313.39 242.92 313.39H59.15V313.4ZM45.3 289.48C45.3 297.11 51.51 303.33 59.15 303.33H242.91C250.54 303.33 256.76 297.12 256.76 289.48V252.35H45.3101V289.48H45.3ZM23.91 101.31C16.28 101.31 10.0601 107.52 10.0601 115.16V228.44C10.0601 236.07 16.27 242.28 23.91 242.28H278.16C285.79 242.28 292.01 236.07 292.01 228.44V115.16C292.01 107.53 285.8 101.31 278.16 101.31H23.91ZM59.15 10.0598C51.52 10.0598 45.3 16.2699 45.3 23.9099V91.25H256.75V84.1499C256.75 75.7399 253.56 67.7399 247.77 61.6399L208.56 20.28C202.41 13.79 193.75 10.0698 184.81 10.0698H59.15V10.0598Z" fill="#000000"/>
<path d="M70.0703 213.33C67.2903 213.33 65.0403 211.07 65.0403 208.3V141.6H50.3502C47.5702 141.6 45.3203 139.34 45.3203 136.57C45.3203 133.79 47.5802 131.54 50.3502 131.54H89.9702C92.7502 131.54 95.0002 133.8 95.0002 136.57C95.0002 139.35 92.7402 141.6 89.9702 141.6H75.1202V208.3C75.1002 211.07 72.8403 213.33 70.0703 213.33Z" fill="#000000"/>
<path d="M231.17 213.33C228.39 213.33 226.14 211.07 226.14 208.3V141.6H211.45C208.67 141.6 206.42 139.34 206.42 136.57C206.42 133.79 208.68 131.54 211.45 131.54H251.07C253.85 131.54 256.1 133.8 256.1 136.57C256.1 139.35 253.84 141.6 251.07 141.6H236.22V208.3C236.21 211.07 233.95 213.33 231.17 213.33Z" fill="#000000"/>
<path d="M178.071 213.329C176.431 213.329 174.891 212.529 173.941 211.189L151.031 178.619L128.091 211.189C127.151 212.529 125.611 213.329 123.971 213.329C122.931 213.329 121.931 213.009 121.081 212.409C119.981 211.639 119.251 210.479 119.021 209.149C118.791 207.819 119.091 206.489 119.861 205.389L144.881 169.869L123.481 139.449C121.881 137.179 122.431 134.029 124.701 132.439C125.551 131.839 126.551 131.52 127.591 131.52C129.231 131.52 130.771 132.319 131.721 133.659L151.051 161.129L170.401 133.659C171.341 132.319 172.881 131.52 174.521 131.52C175.561 131.52 176.561 131.839 177.411 132.439C179.681 134.039 180.221 137.189 178.631 139.459L157.201 169.879L182.191 205.399C182.961 206.499 183.261 207.839 183.031 209.159C182.801 210.489 182.071 211.639 180.971 212.409C180.101 213.009 179.101 213.329 178.071 213.329Z" fill="#000000"/>
</svg>
