<svg width="314" height="314" viewBox="0 0 314 314" fill="none" xmlns="http://www.w3.org/2000/svg">
<path d="M156.699 231.7C198.121 231.7 231.699 198.122 231.699 156.7C231.699 115.279 198.121 81.7002 156.699 81.7002C115.278 81.7002 81.6992 115.279 81.6992 156.7C81.6992 198.122 115.278 231.7 156.699 231.7Z" fill="#ffffaf"/>
<path d="M80.55 161.1C36.1301 161.1 0 124.96 0 80.55C0 36.1301 36.14 0 80.55 0C124.97 0 161.1 36.14 161.1 80.55C161.11 124.96 124.97 161.1 80.55 161.1ZM56.8799 90.2101C57.6799 106.24 60.41 120.74 64.78 132.15C69.31 143.98 75.21 151.04 80.55 151.04C85.89 151.04 91.7901 143.98 96.3201 132.15C100.69 120.75 103.42 106.24 104.22 90.2101L104.45 85.5901H56.6499L56.8799 90.2101ZM114.32 89.78C113.45 108.5 109.96 125.85 104.51 138.66L99.99 149.29L110.44 144.38C132.03 134.23 146.94 114.14 150.32 90.62L151.04 85.5901H114.52L114.32 89.78ZM10.79 90.61C14.17 114.12 29.0799 134.22 50.6699 144.37L61.1199 149.28L56.5999 138.65C51.1499 125.85 47.66 108.49 46.79 89.77L46.5898 85.5701H10.0701L10.79 90.61ZM104.51 22.4301C109.96 35.2301 113.45 52.5901 114.32 71.3101L114.52 75.51H151.04L150.32 70.48C146.94 46.97 132.03 26.8701 110.44 16.7201L99.99 11.8101L104.51 22.4301ZM80.55 10.0601C75.21 10.0601 69.31 17.1201 64.78 28.9501C60.41 40.3501 57.6799 54.86 56.8799 70.89L56.6499 75.51H104.45L104.22 70.89C103.42 54.86 100.69 40.3601 96.3201 28.9501C91.7901 17.1201 85.89 10.0601 80.55 10.0601ZM50.6699 16.7201C29.0799 26.8701 14.17 46.96 10.79 70.48L10.0701 75.51H46.5898L46.79 71.3101C47.66 52.5901 51.1499 35.2401 56.5999 22.4301L61.1199 11.8101L50.6699 16.7201Z" fill="#000000"/>
<path d="M232.851 313.4C188.431 313.4 152.301 277.26 152.301 232.85C152.301 188.43 188.441 152.3 232.851 152.3C277.271 152.3 313.401 188.44 313.401 232.85C313.401 277.26 277.271 313.4 232.851 313.4ZM210.431 242.49C211.191 258.55 213.811 273.08 218.001 284.51C223.091 298.38 229.011 303.33 232.851 303.33C236.691 303.33 242.621 298.39 247.701 284.51C251.891 273.08 254.511 258.55 255.271 242.49L255.491 237.88H210.211L210.431 242.49ZM265.361 242.09C264.531 261.05 261.131 278.58 255.791 291.45L251.531 301.72L261.671 297.16C283.531 287.33 299.221 266.54 302.611 242.91L303.331 237.88H265.541L265.361 242.09ZM163.091 242.91C166.491 266.54 182.171 287.33 204.031 297.16L214.171 301.72L209.911 291.45C204.571 278.58 201.171 261.04 200.341 242.09L200.161 237.88H162.371L163.091 242.91ZM255.791 174.23C261.131 187.1 264.531 204.64 265.361 223.59L265.541 227.8H303.331L302.611 222.77C299.211 199.14 283.531 178.35 261.671 168.52L251.531 163.96L255.791 174.23ZM232.851 162.36C229.011 162.36 223.081 167.3 218.001 181.18C213.811 192.61 211.191 207.14 210.431 223.2L210.211 227.81H255.491L255.271 223.2C254.511 207.14 251.891 192.61 247.701 181.18C242.611 167.3 236.691 162.36 232.851 162.36ZM204.031 168.52C182.171 178.35 166.481 199.14 163.091 222.77L162.371 227.8H200.161L200.341 223.59C201.171 204.63 204.571 187.1 209.911 174.23L214.171 163.96L204.031 168.52Z" fill="#000000"/>
<path d="M232.511 123.97C230.901 123.97 229.431 123.23 228.471 121.94L200.451 84.1798C199.301 82.6198 199.131 80.6598 200.001 78.9198C200.881 77.1798 202.551 76.1398 204.491 76.1398H227.151V62.2898C227.151 44.2498 212.471 29.5698 194.431 29.5698H175.581C172.801 29.5698 170.551 27.3098 170.551 24.5398C170.551 21.7598 172.811 19.5098 175.581 19.5098H194.431C218.031 19.5098 237.221 38.7098 237.221 62.2998V76.1498H260.541C262.481 76.1498 264.151 77.1898 265.031 78.9198C265.911 80.6598 265.741 82.6298 264.581 84.1798L236.561 121.94C235.601 123.23 234.121 123.97 232.511 123.97ZM232.511 110.49L250.531 86.2098H214.501L232.511 110.49Z" fill="#000000"/>
<path d="M118.97 294.52C95.3698 294.52 76.1798 275.32 76.1798 251.73V237.88H52.8597C50.9197 237.88 49.2498 236.84 48.3698 235.11C47.4998 233.37 47.6599 231.4 48.8199 229.85L76.8397 192.09C77.7997 190.8 79.2898 190.05 80.9098 190.05C81.8398 190.05 83.6098 190.31 84.9198 192.09L112.94 229.85C114.09 231.41 114.26 233.37 113.39 235.11C112.51 236.85 110.84 237.89 108.9 237.89H86.2399V251.74C86.2399 269.78 100.92 284.46 118.96 284.46H137.81C140.59 284.46 142.84 286.72 142.84 289.49C142.84 292.26 140.58 294.52 137.81 294.52H118.97ZM62.8698 227.81H98.8998L80.8898 203.53L62.8698 227.81Z" fill="#000000"/>
</svg>
