<svg width="314" height="199" viewBox="0 0 314 199" fill="none" xmlns="http://www.w3.org/2000/svg">
<path d="M156.699 174.43C198.121 174.43 231.699 140.851 231.699 99.4297C231.699 58.0083 198.121 24.4297 156.699 24.4297C115.278 24.4297 81.6992 58.0083 81.6992 99.4297C81.6992 140.851 115.278 174.43 156.699 174.43Z" fill="#ffffaf"/>
<path d="M23.9099 198.86C10.7199 198.86 0 188.13 0 174.95V23.9099C0 10.7199 10.7299 0 23.9099 0H289.48C302.67 0 313.39 10.7299 313.39 23.9099V174.95C313.39 188.14 302.66 198.86 289.48 198.86H23.9099ZM10.0701 174.95C10.0701 182.58 16.2799 188.79 23.9099 188.79H289.48C297.11 188.79 303.32 182.58 303.32 174.95V50.9099L218.14 93.22L218.35 96.1599C218.36 96.2599 218.37 96.37 218.37 96.47C218.3 98.1 218.33 99.4599 218.36 100.65C218.42 103.22 218.41 104.17 217.75 105.36L217.52 105.78L217.38 106.24C214.38 116.3 204.95 123.33 194.46 123.33C188.58 123.33 182.92 121.16 178.52 117.22L175.58 114.58L172.64 117.22C168.24 121.16 162.58 123.33 156.7 123.33C143.51 123.33 132.79 112.6 132.79 99.4199C132.79 86.2399 143.52 75.51 156.7 75.51C169.88 75.51 180.61 86.2399 180.61 99.4199C180.61 107.05 186.82 113.27 194.46 113.27C202.1 113.27 208.3 107.06 208.3 99.4199C208.3 70.9699 185.15 47.8201 156.7 47.8201C140.37 47.8201 124.83 55.6999 115.14 68.8899C105.25 82.3399 102.53 99.51 107.68 115.99C114.24 136.97 133.88 151.07 156.55 151.07C164.59 151.07 172.62 149.17 179.76 145.58C180.47 145.22 181.23 145.04 182.01 145.04C183.93 145.04 185.66 146.1 186.52 147.82C187.77 150.3 186.76 153.33 184.28 154.58C175.69 158.89 166.4 161.08 156.67 161.08C129.49 161.08 105.93 144.17 98.0701 118.99C95.7201 111.47 94.7299 103.77 95.1299 96.1299L95.28 93.24L10.0601 50.9099V174.95H10.0701ZM156.7 85.5901C149.07 85.5901 142.85 91.7999 142.85 99.4299C142.85 107.06 149.06 113.28 156.7 113.28C164.34 113.28 170.54 107.07 170.54 99.4299C170.54 91.7899 164.33 85.5901 156.7 85.5901ZM23.9099 10.0701C16.2799 10.0701 10.0701 16.2799 10.0701 23.9099V39.6699L97.0798 82.8899L98.77 78.27C107.63 54.04 130.91 37.76 156.7 37.76C182.47 37.76 205.75 54.04 214.63 78.28L216.32 82.8999L303.33 39.6799V23.9199C303.33 16.2899 297.12 10.0801 289.49 10.0801H23.9099V10.0701Z" fill="#000000"/>
</svg>
