<svg width="600" height="600" viewBox="0 0 600 600" fill="none" xmlns="http://www.w3.org/2000/svg">
<path d="M240 450C322.843 450 390 382.843 390 300C390 217.157 322.843 150 240 150C157.157 150 90 217.157 90 300C90 382.843 157.157 450 240 450Z" fill="#ffffaf"/>
<path fill-rule="evenodd" clip-rule="evenodd" d="M300 66.6667C171.134 66.6667 66.6667 171.134 66.6667 300C66.6667 428.867 171.134 533.333 300 533.333C417.55 533.333 514.797 446.41 530.97 333.333H333.333C314.923 333.333 300 318.41 300 300C300 281.59 314.923 266.667 333.333 266.667H566.667C585.077 266.667 600 281.59 600 300C600 465.687 465.687 600 300 600C134.315 600 0 465.687 0 300C0 134.315 134.315 0 300 0C371.413 0 437.077 24.993 488.593 66.6803C502.903 78.2607 505.117 99.2497 493.537 113.561C481.957 127.872 460.967 130.085 446.657 118.505C406.573 86.0707 355.6 66.6667 300 66.6667Z" fill="black"/>
</svg>
