<svg width="314" height="276" viewBox="0 0 314 276" fill="none" xmlns="http://www.w3.org/2000/svg">
<path d="M168.767 211.554C209.654 204.918 237.42 166.393 230.784 125.506C224.148 84.6194 185.624 56.8532 144.737 63.4889C103.85 70.1246 76.0834 108.649 82.7191 149.536C89.3548 190.423 127.88 218.19 168.767 211.554Z" fill="#ffffaf"/>
<path d="M5.02991 275.08C2.24991 275.08 0 272.82 0 270.05V28.3C0 25.52 2.25991 23.27 5.02991 23.27H199.6L207.28 3.22998C208.02 1.29998 209.91 0 211.98 0H308.36C311.14 0 313.39 2.26003 313.39 5.03003V270.05C313.39 271.37 312.85 272.67 311.92 273.61C310.97 274.56 309.71 275.08 308.36 275.08H5.02991ZM261.12 97.98C263.9 97.98 266.15 100.24 266.15 103.01V265.01H303.33V10.0599H215.45L193.29 67.86C192.55 69.79 190.66 71.09 188.59 71.09H10.0699V265.01H47.25V103.01C47.25 100.23 49.5099 97.98 52.2799 97.98H261.12ZM57.3199 239.04V265.01H256.09V202.15L208.75 154.81L136.37 227.19C135.42 228.14 134.16 228.66 132.81 228.66C131.47 228.66 130.2 228.14 129.25 227.19C128.3 226.24 127.78 224.98 127.78 223.63C127.78 222.29 128.3 221.02 129.25 220.07L157.74 191.58L131.26 165.1L57.3199 239.04ZM57.3199 224.8L127.7 154.42C128.65 153.47 129.92 152.95 131.26 152.95C132.6 152.95 133.87 153.47 134.82 154.42L164.86 184.46L205.19 144.13C206.14 143.18 207.4 142.66 208.75 142.66C210.09 142.66 211.36 143.18 212.31 144.13L256.09 187.91V108.05H57.3199V224.8ZM10.0699 61.02H185.13L195.75 33.33H10.0699V61.02Z" fill="#000000"/>
</svg>
