<svg width="232" height="314" viewBox="0 0 232 314" fill="none" xmlns="http://www.w3.org/2000/svg">
<path d="M115.79 231.68C157.211 231.68 190.79 198.101 190.79 156.68C190.79 115.258 157.211 81.6797 115.79 81.6797C74.3687 81.6797 40.79 115.258 40.79 156.68C40.79 198.101 74.3687 231.68 115.79 231.68Z" fill="#ffffaf"/>
<path d="M25.17 313.38C11.29 313.38 0 302.09 0 288.21V66.0598C0 52.1798 11.29 40.8899 25.17 40.8899H55.38V25.7898C55.38 23.0098 57.64 20.76 60.41 20.76C60.47 20.76 60.52 20.76 60.58 20.76C61.52 20.76 90.78 20.8398 90.78 20.8398L91.74 17.73C95.03 7.11998 104.69 0 115.79 0C126.86 0 136.52 7.09993 139.82 17.6799L140.79 20.7698H171.17C173.95 20.7698 176.2 23.0298 176.2 25.7998V40.8999H206.41C220.29 40.8999 231.58 52.1898 231.58 66.0698V288.22C231.58 302.1 220.29 313.39 206.41 313.39H25.17V313.38ZM25.17 50.95C16.84 50.95 10.07 57.7298 10.07 66.0498V288.2C10.07 296.53 16.85 303.3 25.17 303.3H206.41C214.74 303.3 221.51 296.52 221.51 288.2V66.0498C221.51 57.7198 214.73 50.95 206.41 50.95H176.2V66.0498C176.2 68.8298 173.94 71.0798 171.17 71.0798H60.41C57.63 71.0798 55.38 68.8198 55.38 66.0498V50.95H25.17ZM65.44 61.0198H166.13V30.8098H135.92C133.14 30.8098 130.89 28.5498 130.89 25.7798V25.1499C130.89 16.8199 124.11 10.0498 115.79 10.0498C107.47 10.0498 100.69 16.8299 100.69 25.1499V25.8599C100.69 28.6399 98.44 30.8899 95.67 30.8899L65.45 30.8198V61.0198H65.44Z" fill="#000000"/>
<path d="M176.21 262.4C174.86 262.4 173.6 261.88 172.65 260.93L161.111 249.39L149.571 260.93C148.621 261.88 147.36 262.4 146.01 262.4C144.67 262.4 143.4 261.88 142.45 260.93C140.49 258.97 140.49 255.77 142.45 253.81L153.991 242.27L142.45 230.73C140.49 228.77 140.49 225.57 142.45 223.61C143.4 222.66 144.66 222.14 146.01 222.14C147.35 222.14 148.621 222.66 149.571 223.61L161.111 235.15L172.65 223.61C173.6 222.66 174.86 222.14 176.21 222.14C177.55 222.14 178.82 222.66 179.77 223.61C181.73 225.57 181.73 228.77 179.77 230.73L168.23 242.27L179.77 253.81C181.73 255.77 181.73 258.97 179.77 260.93C178.81 261.88 177.55 262.4 176.21 262.4Z" fill="#000000"/>
<path d="M70.4802 262.4C67.7002 262.4 65.4502 260.14 65.4502 257.37V252.34C65.4502 234.94 70.6702 220.76 81.4002 209.01C90.6802 198.85 102.8 191.79 114.52 184.96C136.82 171.96 156.07 160.74 156.07 131.52V118.5L144.53 130.04C143.58 130.99 142.32 131.51 140.97 131.51C139.63 131.51 138.36 130.99 137.41 130.04C135.45 128.08 135.45 124.88 137.41 122.92L157.55 102.78C158.5 101.83 159.76 101.31 161.11 101.31C162.45 101.31 163.72 101.83 164.67 102.78L184.81 122.92C186.77 124.88 186.77 128.08 184.81 130.04C183.86 130.99 182.59 131.52 181.25 131.52C179.91 131.52 178.64 131 177.69 130.04L166.15 118.5V131.52C166.15 166.53 142.48 180.32 119.6 193.66C96.9402 206.87 75.5302 219.34 75.5302 252.35V257.38C75.5102 260.14 73.2502 262.4 70.4802 262.4Z" fill="#000000"/>
<path d="M70.4796 156.68C56.5996 156.68 45.3096 145.39 45.3096 131.51C45.3096 117.63 56.5996 106.34 70.4796 106.34C84.3596 106.34 95.6495 117.63 95.6495 131.51C95.6495 145.38 84.3596 156.68 70.4796 156.68ZM70.4796 116.4C62.1496 116.4 55.3796 123.18 55.3796 131.5C55.3796 139.82 62.1596 146.6 70.4796 146.6C78.8096 146.6 85.5795 139.82 85.5795 131.5C85.5795 123.18 78.8096 116.4 70.4796 116.4Z" fill="#000000"/>
</svg>
