<svg width="192" height="314" viewBox="0 0 192 314" fill="none" xmlns="http://www.w3.org/2000/svg">
<path d="M95.6504 231.699C137.072 231.699 170.65 198.121 170.65 156.699C170.65 115.278 137.072 81.6992 95.6504 81.6992C54.229 81.6992 20.6504 115.278 20.6504 156.699C20.6504 198.121 54.229 231.699 95.6504 231.699Z" fill="#ffffaf"/>
<path d="M86.4189 207.68C86.0489 207.68 85.679 207.64 85.319 207.56C84.009 207.27 82.8889 206.48 82.1689 205.35C81.4489 204.22 81.209 202.87 81.499 201.56L101.639 110.94C102.149 108.66 104.209 107 106.549 107C106.919 107 107.289 107.04 107.649 107.12C108.959 107.41 110.079 108.2 110.799 109.33C111.519 110.46 111.759 111.81 111.469 113.12L91.3291 203.74C90.8191 206.02 88.7589 207.68 86.4189 207.68Z" fill="#000000"/>
<path d="M56.2 187.53C54.85 187.53 53.5899 187.01 52.6399 186.06L27.47 160.89C25.51 158.93 25.51 155.73 27.47 153.77L52.6399 128.6C53.5899 127.65 54.86 127.13 56.2 127.13C57.54 127.13 58.81 127.65 59.76 128.6C60.71 129.55 61.24 130.82 61.24 132.16C61.24 133.5 60.7201 134.77 59.7701 135.72L38.1599 157.33L59.7701 178.94C61.7301 180.9 61.7301 184.1 59.7701 186.06C58.8101 187.01 57.55 187.53 56.2 187.53Z" fill="#000000"/>
<path d="M136.76 187.53C135.41 187.53 134.15 187.01 133.2 186.06C132.25 185.11 131.72 183.85 131.72 182.5C131.72 181.16 132.24 179.89 133.19 178.94L154.8 157.33L133.19 135.72C131.23 133.76 131.23 130.56 133.19 128.6C134.14 127.65 135.4 127.13 136.75 127.13C138.09 127.13 139.36 127.65 140.31 128.6L165.48 153.77C167.44 155.73 167.44 158.93 165.48 160.89L140.31 186.06C139.37 187.01 138.1 187.53 136.76 187.53Z" fill="#000000"/>
<path d="M25.17 313.4C11.29 313.4 0 302.11 0 288.23V25.17C0 11.29 11.29 0 25.17 0H166.14C180.02 0 191.31 11.29 191.31 25.17V288.23C191.31 302.11 180.02 313.4 166.14 313.4H25.17ZM25.17 10.0601C16.84 10.0601 10.0701 16.84 10.0701 25.16V288.22C10.0701 296.55 16.85 303.32 25.17 303.32H166.14C174.47 303.32 181.24 296.54 181.24 288.22V25.16C181.24 16.83 174.46 10.0601 166.14 10.0601H25.17Z" fill="#000000"/>
<path d="M95.6501 45.9302C98.4281 45.9302 100.68 43.6781 100.68 40.9001C100.68 38.1222 98.4281 35.8701 95.6501 35.8701C92.8722 35.8701 90.6201 38.1222 90.6201 40.9001C90.6201 43.6781 92.8722 45.9302 95.6501 45.9302Z" fill="#000000"/>
<path d="M55.3699 277.52C58.1479 277.52 60.3999 275.268 60.3999 272.49C60.3999 269.712 58.1479 267.46 55.3699 267.46C52.5919 267.46 50.3398 269.712 50.3398 272.49C50.3398 275.268 52.5919 277.52 55.3699 277.52Z" fill="#000000"/>
<path d="M95.6501 277.53C92.8701 277.53 90.6201 275.27 90.6201 272.5C90.6201 269.72 92.8801 267.47 95.6501 267.47C98.4201 267.47 100.68 269.73 100.68 272.5C100.68 275.27 98.4301 277.53 95.6501 277.53Z" fill="#000000"/>
<path d="M135.93 277.53C133.15 277.53 130.9 275.27 130.9 272.5C130.9 269.72 133.16 267.47 135.93 267.47C138.7 267.47 140.96 269.73 140.96 272.5C140.96 275.27 138.7 277.53 135.93 277.53Z" fill="#000000"/>
</svg>
