<svg width="314" height="202" viewBox="0 0 314 202" fill="none" xmlns="http://www.w3.org/2000/svg">
<path d="M156.7 175.68C198.122 175.68 231.7 142.101 231.7 100.68C231.7 59.2583 198.122 25.6797 156.7 25.6797C115.279 25.6797 81.7002 59.2583 81.7002 100.68C81.7002 142.101 115.279 175.68 156.7 175.68Z" fill="#ffffaf"/>
<path d="M138.04 120.84C136.59 120.84 135.13 120.15 134.16 119C133.49 118.21 132.75 116.87 133.06 114.97L136.22 95.6199L122.89 81.96C121.55 80.59 121.12 78.6799 121.73 76.8499C122.34 75.0199 123.84 73.76 125.74 73.47L143.96 70.6899L152.15 53.23C153 51.42 154.7 50.3398 156.7 50.3398C158.71 50.3398 160.41 51.42 161.26 53.23L169.45 70.6899L187.67 73.47C189.57 73.76 191.06 75.0199 191.68 76.8499C192.29 78.6799 191.86 80.59 190.52 81.96L177.19 95.6199L180.35 114.97C180.66 116.87 179.93 118.21 179.26 119C178.28 120.15 176.83 120.84 175.37 120.84C174.54 120.84 173.73 120.62 172.95 120.19L156.72 111.22L140.49 120.19C139.69 120.62 138.87 120.84 138.04 120.84ZM156.7 100.43C158.04 100.43 158.72 100.81 160.22 101.66L160.79 101.98L168.73 106.37L166.83 94.74C166.57 93.17 167.08 91.5499 168.19 90.4099L176.45 81.9399L165.26 80.23C163.6 79.98 162.18 78.9199 161.46 77.3899L156.68 67.22L151.9 77.3899C151.19 78.9099 149.77 79.97 148.1 80.23L136.91 81.9399L145.17 90.4099C146.28 91.5499 146.79 93.17 146.54 94.74L144.64 106.37L152.58 101.98L153.16 101.65C154.69 100.8 155.4 100.43 156.7 100.43Z" fill="#000000"/>
<path d="M48.8903 120.84C47.4403 120.84 45.9805 120.15 45.0105 119C44.3405 118.21 43.6004 116.87 43.9104 114.97L47.0705 95.6199L33.7404 81.96C32.4004 80.59 31.9703 78.6799 32.5803 76.8499C33.1903 75.0199 34.6903 73.76 36.5903 73.47L54.8105 70.6899L63.0004 53.23C63.8504 51.42 65.5505 50.3398 67.5505 50.3398C69.5605 50.3398 71.2603 51.42 72.1103 53.23L80.3005 70.6899L98.5205 73.47C100.42 73.76 101.91 75.0199 102.53 76.8499C103.14 78.6799 102.71 80.59 101.37 81.96L88.0405 95.6199L91.2004 114.97C91.5104 116.87 90.7803 118.21 90.1103 119C89.1303 120.15 87.6804 120.84 86.2204 120.84C85.3904 120.84 84.5805 120.62 83.8005 120.19L67.5705 111.22L51.3403 120.19C50.5403 120.62 49.7203 120.84 48.8903 120.84ZM67.5505 100.43C68.8905 100.43 69.5705 100.81 71.0705 101.66L71.6403 101.98L79.5803 106.37L77.6804 94.74C77.4204 93.17 77.9305 91.5499 79.0505 90.4099L87.3105 81.9399L76.1203 80.23C74.4603 79.98 73.0405 78.9199 72.3205 77.3899L67.5405 67.21L62.7705 77.3899C62.0605 78.9099 60.6404 79.97 58.9704 80.23L47.7805 81.9399L56.0405 90.4099C57.1505 91.5499 57.6604 93.17 57.4104 94.74L55.5105 106.37L63.4504 101.98L64.0305 101.65C65.5305 100.8 66.2505 100.43 67.5505 100.43Z" fill="#000000"/>
<path d="M225.1 120.84C223.65 120.84 222.19 120.15 221.22 119C220.55 118.21 219.81 116.87 220.12 114.97L223.28 95.6199L209.95 81.96C208.61 80.59 208.18 78.6799 208.79 76.8499C209.4 75.0199 210.9 73.76 212.8 73.47L231.02 70.6899L239.21 53.23C240.06 51.42 241.76 50.3398 243.77 50.3398C245.78 50.3398 247.48 51.42 248.33 53.23L256.52 70.6899L274.74 73.47C276.64 73.76 278.13 75.0199 278.75 76.8499C279.36 78.6799 278.93 80.59 277.59 81.96L264.26 95.6199L267.42 114.97C267.73 116.87 267 118.21 266.33 119C265.35 120.15 263.9 120.84 262.44 120.84C261.61 120.84 260.8 120.62 260.02 120.19L243.79 111.22L227.56 120.19C226.75 120.62 225.93 120.84 225.1 120.84ZM243.76 100.43C245.1 100.43 245.78 100.81 247.28 101.66L247.85 101.98L255.79 106.37L253.89 94.74C253.63 93.17 254.14 91.5499 255.25 90.4099L263.51 81.9399L252.32 80.23C250.66 79.98 249.24 78.9199 248.52 77.3899L243.74 67.21L238.97 77.3899C238.26 78.9099 236.84 79.97 235.17 80.23L223.98 81.9399L232.24 90.4099C233.35 91.5499 233.86 93.17 233.61 94.74L231.71 106.37L239.65 101.98L240.23 101.66C241.74 100.8 242.46 100.43 243.76 100.43Z" fill="#000000"/>
<path d="M156.7 201.37C155.16 201.37 153.73 200.68 152.77 199.48L134.14 176.2H25.1699C11.2899 176.2 0 164.91 0 151.03V25.1699C0 11.2899 11.2899 0 25.1699 0H288.23C302.11 0 313.4 11.2899 313.4 25.1699V151.03C313.4 164.91 302.11 176.2 288.23 176.2H179.26L160.63 199.48C159.67 200.68 158.24 201.37 156.7 201.37ZM25.1699 10.0601C16.8399 10.0601 10.0701 16.8399 10.0701 25.1599V151.02C10.0701 159.35 16.8499 166.12 25.1699 166.12H136.56C138.1 166.12 139.53 166.81 140.49 168.01L156.7 188.27L172.91 168.01C173.87 166.81 175.3 166.12 176.84 166.12H288.23C296.56 166.12 303.33 159.34 303.33 151.02V25.1599C303.33 16.8299 296.55 10.0601 288.23 10.0601H25.1699Z" fill="#000000"/>
</svg>
