<svg width="314" height="314" viewBox="0 0 314 314" fill="none" xmlns="http://www.w3.org/2000/svg">
<path d="M156.689 231.699C198.111 231.699 231.689 198.121 231.689 156.699C231.689 115.278 198.111 81.6992 156.689 81.6992C115.268 81.6992 81.6895 115.278 81.6895 156.699C81.6895 198.121 115.268 231.699 156.689 231.699Z" fill="#ffffaf"/>
<path d="M103.94 260C102.83 260 101.71 259.92 100.62 259.77C97.8696 259.38 95.9496 256.831 96.3396 254.081C96.6896 251.611 98.8296 249.75 101.31 249.75C101.55 249.75 101.79 249.77 102.03 249.8C102.69 249.89 103.35 249.94 104.01 249.94C107.69 249.94 111.16 248.5 113.78 245.88C119.18 240.48 119.18 231.7 113.78 226.3C111.17 223.69 107.69 222.25 103.99 222.25C100.29 222.25 96.8096 223.69 94.1996 226.3C89.6796 230.82 83.6697 233.31 77.2897 233.31C70.9097 233.31 64.8996 230.82 60.3796 226.3C51.0596 216.98 51.0596 201.8 60.3796 192.48C64.8296 188.03 71.0096 185.48 77.3496 185.48C78.4596 185.48 79.5796 185.56 80.6696 185.71C81.9996 185.9 83.1796 186.6 83.9896 187.67C84.7996 188.75 85.1396 190.07 84.9496 191.4C84.5996 193.87 82.4596 195.73 79.9796 195.73C79.7396 195.73 79.4997 195.71 79.2597 195.68C78.5997 195.59 77.9396 195.54 77.2796 195.54C73.5996 195.54 70.1297 196.98 67.5097 199.6C64.8897 202.22 63.4496 205.69 63.4496 209.39C63.4496 213.09 64.8897 216.56 67.5097 219.18C70.1297 221.8 73.5996 223.24 77.2996 223.24C80.9996 223.24 84.4696 221.8 87.0896 219.18C91.5996 214.67 97.5996 212.19 104 212.19C110.4 212.19 116.4 214.67 120.91 219.18C125.42 223.69 127.9 229.691 127.9 236.091C127.9 242.491 125.42 248.49 120.91 253C116.46 257.44 110.27 260 103.94 260Z" fill="black"/>
<path d="M210.8 153.21C204.42 153.21 198.41 150.72 193.89 146.2L167.19 119.5C157.87 110.18 157.87 95.0104 167.19 85.6804C171.7 81.1704 177.7 78.6904 184.1 78.6904C190.5 78.6904 196.5 81.1704 201.01 85.6804L227.71 112.38C237.03 121.7 237.03 136.87 227.71 146.2C223.18 150.72 217.18 153.21 210.8 153.21ZM184.1 88.7504C180.4 88.7504 176.92 90.1904 174.31 92.8004C168.91 98.2004 168.91 106.98 174.31 112.38L201.01 139.08C203.63 141.7 207.1 143.14 210.8 143.14C214.5 143.14 217.97 141.7 220.59 139.08C223.2 136.47 224.64 132.99 224.64 129.29C224.64 125.59 223.2 122.11 220.59 119.5L193.89 92.8004C191.27 90.1904 187.8 88.7504 184.1 88.7504Z" fill="black"/>
<path d="M157.4 214.42C156.06 214.42 154.79 213.9 153.84 212.95L100.44 159.55C99.4897 158.6 98.9697 157.34 98.9697 155.99C98.9697 154.65 99.4897 153.38 100.44 152.43L127.14 125.73C128.09 124.78 129.36 124.26 130.7 124.26C132.04 124.26 133.31 124.78 134.26 125.73C135.21 126.68 135.73 127.95 135.73 129.29C135.73 130.63 135.21 131.9 134.26 132.85L111.12 155.99L130.7 175.57L153.84 152.43C154.79 151.48 156.06 150.96 157.4 150.96C158.74 150.96 160.01 151.48 160.96 152.44C161.91 153.39 162.43 154.65 162.43 156C162.43 157.35 161.91 158.61 160.96 159.56L137.82 182.7L157.4 202.28L180.54 179.14C181.49 178.19 182.76 177.67 184.1 177.67C185.44 177.67 186.71 178.19 187.66 179.14C189.62 181.1 189.62 184.3 187.66 186.26L160.96 212.96C160.01 213.9 158.74 214.42 157.4 214.42Z" fill="black"/>
<path d="M104 313.39C97.6 313.39 91.6 310.91 87.09 306.4L6.99 226.3C-2.33 216.98 -2.33 201.81 6.99 192.48L180.54 18.93C181.49 17.98 182.75 17.45 184.1 17.45C184.34 17.45 184.58 17.47 184.81 17.5L275.76 30.49L304.78 1.46997C305.73 0.519971 306.99 0 308.34 0C309.69 0 310.95 0.519971 311.9 1.46997C312.85 2.41997 313.37 3.67997 313.37 5.02997C313.37 6.36997 312.85 7.63997 311.9 8.58997L282.88 37.61L295.87 128.57C296.09 130.13 295.56 131.73 294.45 132.84L120.9 306.39C116.4 310.9 110.39 313.39 104 313.39ZM14.11 199.6C11.49 202.22 10.05 205.69 10.05 209.39C10.05 213.09 11.49 216.56 14.11 219.18L94.21 299.28C96.82 301.89 100.3 303.33 104 303.33C107.7 303.33 111.18 301.89 113.79 299.28L285.56 127.52L273.99 46.53L241.06 79.46C240.11 80.41 238.85 80.93 237.5 80.93C236.16 80.93 234.89 80.41 233.94 79.46C231.98 77.5 231.98 74.3 233.94 72.34L266.87 39.41L185.88 27.84L14.11 199.6Z" fill="black"/>
</svg>
