<svg width="314" height="314" viewBox="0 0 314 314" fill="none" xmlns="http://www.w3.org/2000/svg">
<path d="M228.44 103.37C225.66 103.37 223.41 101.11 223.41 98.3398V89.6099C223.41 73.7299 231.96 58.85 245.72 50.77L250.08 48.21L246.95 44.24C243.1 39.37 241.07 33.5198 241.07 27.3398C241.07 12.2698 253.33 0 268.41 0C275.7 0 282.56 2.85002 287.73 8.02002C292.9 13.19 295.75 20.0498 295.75 27.3398C295.75 33.5298 293.72 39.37 289.87 44.24L286.73 48.21L291.09 50.77C304.85 58.84 313.4 73.7299 313.4 89.6099V98.3398C313.4 101.12 311.14 103.37 308.37 103.37H228.44ZM268.4 54.6799C249.58 54.6799 233.91 69.9798 233.48 88.7998L233.38 93.3098H303.43L303.33 88.7998C302.89 69.9798 287.22 54.6799 268.4 54.6799ZM268.4 10.0698C258.88 10.0698 251.13 17.8198 251.13 27.3398C251.13 36.8598 258.88 44.6099 268.4 44.6099C277.92 44.6099 285.67 36.8598 285.67 27.3398C285.67 17.8198 277.92 10.0698 268.4 10.0698Z" fill="black"/>
<path d="M156.7 231.71C198.122 231.71 231.7 198.131 231.7 156.71C231.7 115.289 198.122 81.71 156.7 81.71C115.279 81.71 81.7002 115.289 81.7002 156.71C81.7002 198.131 115.279 231.71 156.7 231.71Z" fill="#ffffaf"/>
<path d="M5.02991 103.37C2.24991 103.37 0 101.11 0 98.3398V89.6099C0 73.7299 8.54994 58.85 22.3099 50.77L26.6699 48.21L23.5399 44.24C19.6899 39.37 17.6599 33.5198 17.6599 27.3398C17.6599 12.2698 29.92 0 45 0C60.08 0 72.34 12.2598 72.34 27.3398C72.34 33.5298 70.31 39.37 66.46 44.24L63.3199 48.21L67.6799 50.77C81.4399 58.84 89.99 73.7299 89.99 89.6099V98.3398C89.99 101.12 87.73 103.37 84.96 103.37H5.02991ZM45 54.6799C26.18 54.6799 10.51 69.9798 10.08 88.7998L9.97998 93.3098H80.0299L79.9299 88.7998C79.4899 69.9798 63.82 54.6799 45 54.6799ZM45 10.0698C35.48 10.0698 27.73 17.8198 27.73 27.3398C27.73 36.8598 35.48 44.6099 45 44.6099C54.52 44.6099 62.2699 36.8598 62.2699 27.3398C62.2699 17.8198 54.52 10.0698 45 10.0698Z" fill="black"/>
<path d="M5.02991 313.41C2.24991 313.41 0 311.15 0 308.38V299.65C0 283.77 8.54994 268.89 22.3099 260.81L26.6699 258.25L23.5299 254.28C19.6799 249.41 17.6499 243.56 17.6499 237.38C17.6499 222.31 29.91 210.04 44.99 210.04C60.07 210.04 72.33 222.3 72.33 237.38C72.33 243.57 70.3 249.41 66.45 254.28L63.3099 258.25L67.6699 260.81C81.4299 268.88 89.98 283.77 89.98 299.65V308.38C89.98 311.16 87.72 313.41 84.95 313.41H5.02991ZM45 264.72C26.18 264.72 10.51 280.02 10.08 298.83L9.97998 303.34H80.0299L79.9299 298.83C79.4899 280.02 63.82 264.72 45 264.72ZM45 220.11C35.48 220.11 27.73 227.86 27.73 237.38C27.73 246.9 35.48 254.65 45 254.65C54.52 254.65 62.2699 246.9 62.2699 237.38C62.2699 227.86 54.52 220.11 45 220.11Z" fill="black"/>
<path d="M228.44 313.41C225.66 313.41 223.41 311.15 223.41 308.38V299.65C223.41 283.77 231.96 268.89 245.72 260.81L250.08 258.25L246.94 254.28C243.09 249.41 241.06 243.56 241.06 237.38C241.06 222.31 253.32 210.04 268.4 210.04C283.48 210.04 295.74 222.3 295.74 237.38C295.74 243.57 293.71 249.41 289.86 254.28L286.72 258.25L291.08 260.81C304.84 268.88 313.39 283.77 313.39 299.65V308.38C313.39 311.16 311.13 313.41 308.36 313.41H228.44ZM268.4 264.72C249.58 264.72 233.91 280.02 233.48 298.83L233.38 303.34H303.43L303.33 298.83C302.89 280.02 287.22 264.72 268.4 264.72ZM268.4 220.11C258.88 220.11 251.13 227.86 251.13 237.38C251.13 246.9 258.88 254.65 268.4 254.65C277.92 254.65 285.67 246.9 285.67 237.38C285.67 227.86 277.92 220.11 268.4 220.11Z" fill="black"/>
<path d="M156.7 245.99C153.92 245.99 151.67 243.73 151.67 240.96V219.14L147.88 218.6C120.51 214.72 98.6802 192.89 94.8002 165.52L94.2603 161.73H72.4402C69.6602 161.73 67.4102 159.47 67.4102 156.7C67.4102 153.92 69.6702 151.67 72.4402 151.67H94.2603L94.8002 147.88C98.6802 120.51 120.51 98.68 147.88 94.8L151.67 94.2603V72.4402C151.67 69.6602 153.93 67.4102 156.7 67.4102C159.47 67.4102 161.73 69.6702 161.74 72.4502V94.2703L165.53 94.8101C192.9 98.6901 214.72 120.52 218.61 147.89L219.15 151.68H240.97C243.75 151.68 246 153.94 246 156.71C246 159.49 243.74 161.74 240.97 161.74H219.15L218.61 165.53C214.73 192.9 192.9 214.72 165.53 218.61L161.74 219.15V240.97C161.74 243.74 159.48 245.99 156.7 245.99ZM156.7 182.39C159.48 182.39 161.73 184.65 161.73 187.42V209.18L167 208.13C187.82 203.96 203.96 187.82 208.13 167L209.18 161.73H187.42C184.64 161.73 182.39 159.47 182.39 156.7C182.39 153.92 184.65 151.67 187.42 151.67H209.18L208.13 146.4C203.96 125.58 187.82 109.44 167 105.27L161.73 104.22V125.98C161.73 128.76 159.47 131.01 156.7 131.01C153.93 131.01 151.67 128.75 151.67 125.98V104.22L146.4 105.27C125.58 109.44 109.44 125.58 105.27 146.4L104.22 151.67H125.98C128.76 151.67 131.01 153.93 131.01 156.7C131.01 159.48 128.75 161.73 125.98 161.73H104.22L105.27 167C109.44 187.82 125.58 203.96 146.4 208.13L151.67 209.18V187.42C151.67 184.65 153.92 182.39 156.7 182.39Z" fill="black"/>
</svg>
