<svg width="314" height="314" viewBox="0 0 314 314" fill="none" xmlns="http://www.w3.org/2000/svg">
<path d="M156.699 231.71C198.121 231.71 231.699 198.131 231.699 156.71C231.699 115.289 198.121 81.71 156.699 81.71C115.278 81.71 81.6992 115.289 81.6992 156.71C81.6992 198.131 115.278 231.71 156.699 231.71Z" fill="#ffffaf"/>
<path d="M219.41 313.41C217.67 313.41 215.49 312.52 214.62 310.04L180.79 213.38H31.8403C14.2803 213.38 0 199.1 0 181.54V31.8398C0 14.2798 14.2803 0 31.8403 0H229.62C247.18 0 261.46 14.2798 261.46 31.8398V181.54C261.46 185.19 260.83 188.81 259.59 192.28L258.09 196.46L310.04 214.64C311.93 215.3 313.18 216.89 313.38 218.89C313.58 220.89 312.67 222.7 310.94 223.72L283.04 240.22L310.71 267.88C311.66 268.83 312.18 270.09 312.18 271.44C312.18 272.79 311.66 274.05 310.71 275L275 310.7C274.05 311.65 272.78 312.17 271.44 312.17C270.1 312.17 268.83 311.65 267.88 310.7L240.21 283.04L223.71 310.93C222.39 313.17 220.26 313.41 219.41 313.41ZM239.2 269.86C240.53 269.86 241.79 270.38 242.74 271.33L271.44 300.02L300.03 271.44L271.33 242.75C270.22 241.64 269.7 240.12 269.9 238.56C270.1 237 270.98 235.65 272.33 234.86L296.5 220.56L179.66 179.68L220.55 296.5L234.85 272.34C235.76 270.78 237.39 269.86 239.2 269.86ZM10.0703 181.54C10.0703 193.54 19.8403 203.31 31.8403 203.31H177.27L166.71 173.14C165.96 171.01 166.78 169.38 167.34 168.6C168.31 167.24 169.84 166.42 171.43 166.42C171.99 166.42 172.56 166.52 173.13 166.72L248.57 193.12L250.06 189.05C250.95 186.63 251.4 184.11 251.4 181.55V31.8499C251.4 19.8499 241.63 10.0798 229.63 10.0798H31.8501C19.8501 10.0798 10.0801 19.8499 10.0801 31.8499V181.54H10.0703Z" fill="#000000"/>
<path d="M94.9702 156.78C92.5402 156.78 89.9102 154.85 89.9102 151.74V61.6594C89.9102 58.5394 92.5402 56.6094 94.9702 56.6094C95.8402 56.6094 96.68 56.8393 97.46 57.2993L175.48 102.339C177.75 103.649 177.99 105.829 177.99 106.699C177.99 107.569 177.75 109.749 175.48 111.059L97.46 156.099C96.67 156.549 95.8402 156.78 94.9702 156.78ZM99.98 143.01L162.89 106.689L99.98 70.3694V143.01Z" fill="#000000"/>
</svg>
