<svg width="314" height="292" viewBox="0 0 314 292" fill="none" xmlns="http://www.w3.org/2000/svg">
<path d="M156.711 221C198.132 221 231.711 187.421 231.711 146C231.711 104.579 198.132 71 156.711 71C115.29 71 81.7109 104.579 81.7109 146C81.7109 187.421 115.29 221 156.711 221Z" fill="#ffffaf"/>
<path d="M116.43 292C113.65 292 111.4 289.74 111.4 286.97C111.4 284.2 113.66 281.94 116.43 281.94H131.53V241.66H25.1699C11.2899 241.66 0 230.37 0 216.49V25.17C0 11.29 11.2899 0 25.1699 0H288.23C302.11 0 313.4 11.29 313.4 25.17V216.48C313.4 230.36 302.11 241.65 288.23 241.65H181.87V281.93H196.97C199.75 281.93 202 284.19 202 286.96C202 289.73 199.74 291.99 196.97 291.99H116.43V292ZM141.61 281.93H171.82V241.65H141.61V281.93ZM10.0801 216.48C10.0801 224.81 16.8599 231.58 25.1799 231.58H288.24C296.57 231.58 303.34 224.8 303.34 216.48V201.38H10.0801V216.48ZM25.1799 10.07C16.8499 10.07 10.0801 16.85 10.0801 25.17V191.31H303.34V25.17C303.34 16.84 296.56 10.07 288.24 10.07H25.1799Z" fill="#000000"/>
<path d="M146.649 151.04C146.279 151.04 145.91 151 145.55 150.92C144.24 150.63 143.119 149.84 142.399 148.71C141.679 147.58 141.439 146.23 141.729 144.92L161.869 54.3004C162.379 52.0204 164.439 50.3604 166.779 50.3604C167.149 50.3604 167.519 50.4004 167.879 50.4804C169.189 50.7704 170.309 51.5604 171.029 52.6904C171.749 53.8204 171.989 55.1704 171.699 56.4804L151.56 147.1C151.05 149.38 148.989 151.04 146.649 151.04Z" fill="#000000"/>
<path d="M116.43 130.89C115.08 130.89 113.82 130.37 112.87 129.42L87.7005 104.25C85.7405 102.29 85.7405 99.0902 87.7005 97.1302L112.87 71.9603C113.82 71.0103 115.09 70.4902 116.43 70.4902C117.77 70.4902 119.041 71.0103 119.991 71.9603C120.941 72.9103 121.47 74.1803 121.47 75.5203C121.47 76.8603 120.951 78.1303 120.001 79.0803L98.3904 100.69L120.001 122.3C121.961 124.26 121.961 127.46 120.001 129.42C119.041 130.37 117.78 130.89 116.43 130.89Z" fill="#000000"/>
<path d="M196.99 130.89C195.64 130.89 194.38 130.37 193.43 129.42C192.48 128.47 191.95 127.21 191.95 125.86C191.95 124.52 192.47 123.25 193.42 122.3L215.03 100.69L193.42 79.0803C191.46 77.1203 191.46 73.9203 193.42 71.9603C194.37 71.0103 195.63 70.4902 196.98 70.4902C198.32 70.4902 199.59 71.0103 200.54 71.9603L225.71 97.1302C227.67 99.0902 227.67 102.29 225.71 104.25L200.54 129.42C199.6 130.37 198.33 130.89 196.99 130.89Z" fill="#000000"/>
</svg>
