<svg width="314" height="308" viewBox="0 0 314 308" fill="none" xmlns="http://www.w3.org/2000/svg">
<path d="M156.7 228.54C198.122 228.54 231.7 194.961 231.7 153.54C231.7 112.119 198.122 78.54 156.7 78.54C115.279 78.54 81.7002 112.119 81.7002 153.54C81.7002 194.961 115.279 228.54 156.7 228.54Z" fill="#ffffaf"/>
<path d="M5.03003 307.1C2.25003 307.1 0 304.84 0 302.07V5.03003C0 2.25003 2.26003 0 5.03003 0H308.36C311.14 0 313.39 2.26003 313.39 5.03003V302.07C313.39 304.85 311.13 307.1 308.36 307.1H5.03003ZM10.0701 297.03H303.33V85.5801H10.0701V297.03ZM10.0701 75.51H303.33V10.0601H10.0701V75.51Z" fill="#000000"/>
<path d="M270.61 45.4799C267.83 45.4799 265.58 43.22 265.58 40.45C265.58 37.67 267.84 35.4199 270.61 35.4199C273.39 35.4199 275.64 37.68 275.64 40.45C275.64 43.22 273.38 45.4799 270.61 45.4799Z" fill="#000000"/>
<path d="M232.85 45.4701C235.628 45.4701 237.88 43.2182 237.88 40.4402C237.88 37.6622 235.628 35.4102 232.85 35.4102C230.072 35.4102 227.82 37.6622 227.82 40.4402C227.82 43.2182 230.072 45.4701 232.85 45.4701Z" fill="#000000"/>
<path d="M195.09 45.4701C197.868 45.4701 200.12 43.2182 200.12 40.4402C200.12 37.6622 197.868 35.4102 195.09 35.4102C192.312 35.4102 190.061 37.6622 190.061 40.4402C190.061 43.2182 192.312 45.4701 195.09 45.4701Z" fill="#000000"/>
<path d="M42.7898 45.4799C40.0098 45.4799 37.7598 43.22 37.7598 40.45C37.7598 37.67 40.0198 35.4199 42.7898 35.4199H104.68C107.46 35.4199 109.71 37.68 109.71 40.45C109.71 43.23 107.45 45.4799 104.68 45.4799H42.7898Z" fill="#000000"/>
<path d="M67.5896 269.17C64.8296 269.17 62.5698 266.92 62.5598 264.16L62.3696 219.73L59.4597 218.69C46.4797 214.05 37.7598 201.68 37.7598 187.93V181.94C37.7598 163.93 52.4097 149.28 70.4197 149.28H112.97L113.26 149.24C117.22 148.71 137.82 145.6 154.47 135.9C162.14 131.43 170.34 124.85 178.19 116.87C180.99 114.02 184.11 113.43 186.23 113.43C191.92 113.43 197.81 117.72 197.81 124.9V244.98C197.81 252.16 191.92 256.46 186.23 256.46C184.11 256.46 180.99 255.86 178.18 253.01C170.33 245.03 162.12 238.46 154.46 233.98C139.39 225.19 117.91 220.6 110.62 220.6H106.21V264.14C106.21 266.92 103.95 269.17 101.18 269.17H67.5896ZM72.5996 259.1H96.1497V220.59H72.4297L72.5996 259.1ZM180.35 128.82C173.41 135.28 166.42 140.58 159.55 144.59C145.95 152.52 130.11 156.4 121.87 158.01L118.31 158.71V211.17L121.87 211.87C130.1 213.48 145.95 217.36 159.54 225.29C166.41 229.29 173.4 234.6 180.34 241.06L187.75 247.96V121.94L180.35 128.82ZM70.4197 159.34C57.9597 159.34 47.8296 169.48 47.8296 181.93V187.92C47.8296 200.38 57.9697 210.51 70.4197 210.51H108.24V159.33H70.4197V159.34Z" fill="#000000"/>
<path d="M236.84 189.77C234.06 189.77 231.811 187.51 231.811 184.74C231.811 181.97 234.07 179.71 236.84 179.71H264.311C267.091 179.71 269.34 181.97 269.34 184.74C269.34 187.51 267.081 189.77 264.311 189.77H236.84Z" fill="#000000"/>
<path d="M236.84 152.01C234.77 152.01 232.93 150.77 232.16 148.85C231.13 146.27 232.38 143.34 234.96 142.3L260.46 132.07C261.06 131.83 261.69 131.71 262.33 131.71C264.4 131.71 266.24 132.95 267.01 134.87C268.04 137.45 266.79 140.38 264.21 141.42L238.71 151.65C238.11 151.89 237.48 152.01 236.84 152.01Z" fill="#000000"/>
<path d="M262.33 237.771C261.69 237.771 261.06 237.651 260.46 237.411L234.96 227.181C233.71 226.681 232.73 225.72 232.21 224.49C231.68 223.25 231.67 221.881 232.17 220.641C232.94 218.721 234.78 217.48 236.84 217.48C237.48 217.48 238.11 217.6 238.71 217.84L264.21 228.071C266.79 229.101 268.04 232.04 267.01 234.62C266.24 236.52 264.4 237.771 262.33 237.771Z" fill="#000000"/>
</svg>
