<svg width="314" height="277" viewBox="0 0 314 277" fill="none" xmlns="http://www.w3.org/2000/svg">
<path d="M156.7 213.28C198.122 213.28 231.7 179.702 231.7 138.28C231.7 96.8589 198.122 63.2803 156.7 63.2803C115.279 63.2803 81.7002 96.8589 81.7002 138.28C81.7002 179.702 115.279 213.28 156.7 213.28Z" fill="#ffffaf"/>
<path d="M156.7 276.56C105.02 276.56 58.04 248.09 34.08 202.26L32.84 199.9H5.02991C2.24991 199.9 0 197.64 0 194.87V81.5901C0 78.8101 2.25991 76.5601 5.02991 76.5601H32.84L34.08 74.2002C46.38 50.6802 64.6499 31.43 86.9199 18.54C107.88 6.41004 132 0 156.67 0C181.34 0 205.48 6.42006 226.46 18.5601C248.75 31.4501 267.02 50.6902 279.31 74.2002L280.55 76.5601H308.37C311.15 76.5601 313.4 78.8201 313.4 81.5901V194.87C313.4 197.65 311.14 199.9 308.37 199.9H280.55L279.31 202.26C255.36 248.09 208.38 276.56 156.7 276.56ZM147.1 228.06C138.3 228.38 129.54 229.15 121.05 230.35L114.56 231.26L117.85 236.92C123.49 246.62 132.89 259.25 145.63 264.3L151.66 266.69V227.88L147.1 228.06ZM161.73 266.7L167.76 264.31C180.49 259.26 189.89 246.63 195.54 236.93L198.83 231.27L192.34 230.36C183.86 229.16 175.09 228.39 166.29 228.07L161.72 227.9V266.7H161.73ZM207.35 236.32C204.64 241.58 201.68 246.45 198.55 250.8L189.75 263.03L203.75 257.47C211.76 254.29 219.49 250.29 226.73 245.57L234.58 240.45L225.62 237.67C221.3 236.33 216.81 235.11 212.26 234.05L208.91 233.27L207.35 236.32ZM101.14 234.05C96.5999 235.11 92.1099 236.33 87.7899 237.67L78.83 240.45L86.6899 245.57C93.9199 250.28 101.65 254.29 109.65 257.47L123.66 263.03L114.85 250.8C111.73 246.47 108.77 241.6 106.06 236.33L104.49 233.28L101.14 234.05ZM219.9 203.15C218.39 208.75 216.67 214.17 214.79 219.26L213.09 223.86L217.85 225.05C225.76 227.03 233.32 229.41 240.31 232.11L242.91 233.11L244.93 231.2C252.68 223.88 259.48 215.62 265.16 206.65L269.44 199.89H220.78L219.9 203.15ZM48.24 206.66C53.92 215.63 60.73 223.89 68.48 231.21L70.5 233.12L73.09 232.12C80.08 229.41 87.6399 227.04 95.5399 225.06L100.3 223.87L98.6 219.27C96.72 214.16 95 208.75 93.49 203.16L92.61 199.91H43.95L48.24 206.66ZM161.73 217.83L165.98 217.98C177.33 218.37 188.6 219.48 199.47 221.27L203 221.85L204.3 218.52C205.9 214.42 207.39 210.07 208.74 205.57L210.44 199.9H161.74V217.83H161.73ZM104.67 205.57C106.03 210.09 107.52 214.45 109.11 218.52L110.41 221.85L113.94 221.27C124.81 219.48 136.07 218.37 147.43 217.98L151.68 217.83V199.9H102.98L104.67 205.57ZM10.0699 189.83H303.33V86.6201H10.0699V189.83ZM240.17 44.1702C233.2 46.8302 225.66 49.1701 217.76 51.1201L212.97 52.3L214.69 56.9302C216.62 62.1302 218.37 67.64 219.91 73.3L220.79 76.55H269.45L265.17 69.79C259.45 60.75 252.59 52.4401 244.77 45.0701L242.76 43.1802L240.17 44.1702ZM199.36 54.8501C188.51 56.6101 177.29 57.69 166 58.05L161.74 58.1902V76.55H210.44L208.74 70.8801C207.34 66.2301 205.81 61.7601 204.17 57.5901L202.87 54.28L199.36 54.8501ZM109.31 57.4202C107.64 61.6702 106.08 66.2001 104.67 70.8901L102.97 76.5601H151.67V58.1802L147.42 58.03C136.12 57.62 124.92 56.5002 114.13 54.7002L110.61 54.1101L109.31 57.4202ZM68.99 44.76C61.03 52.2 54.05 60.62 48.24 69.79L43.95 76.55H92.61L93.49 73.3C95.06 67.51 96.8399 61.9102 98.7899 56.6702L100.51 52.0601L95.74 50.8601C87.92 48.8901 80.46 46.5401 73.58 43.8701L71 42.8701L68.99 44.76ZM161.73 48.1301L166.29 47.97C175 47.67 183.7 46.93 192.13 45.77L198.67 44.8701L195.33 39.1802C189.72 29.6102 180.38 17.1601 167.76 12.1501L161.73 9.76001V48.1301ZM145.64 12.1401C133.07 17.1301 123.76 29.51 118.16 39.02L114.82 44.6902L121.33 45.6201C129.71 46.8101 138.37 47.5902 147.09 47.9302L151.67 48.1101V9.76001L145.64 12.1401ZM198.5 25.6301C201.58 29.9001 204.5 34.6901 207.19 39.8601L208.76 42.8901L212.09 42.1201C216.6 41.0801 221.05 39.9001 225.32 38.6001L234.38 35.8401L226.43 30.6902C219.26 26.0402 211.6 22.0902 203.69 18.9502L189.67 13.4001L198.5 25.6301ZM109.66 18.99C101.9 22.07 94.4 25.9302 87.37 30.4502L79.4099 35.5701L88.45 38.3601C92.63 39.6501 96.9799 40.8301 101.4 41.8801L104.73 42.6702L106.31 39.6301C108.95 34.5501 111.83 29.8502 114.85 25.6602L123.66 13.4302L109.66 18.99Z" fill="#000000"/>
<path d="M96.8602 162.17C95.9202 162.17 94.5501 161.91 93.3301 160.67L78.2701 145.39L63.2402 160.63C62.0202 161.87 60.6502 162.13 59.7102 162.13C57.6302 162.13 55.1701 160.81 54.6901 157.92L48.4001 120.16C48.1801 118.83 48.4901 117.5 49.2701 116.41C50.0501 115.32 51.2101 114.59 52.5401 114.37C52.8201 114.32 53.1002 114.3 53.3802 114.3C55.8502 114.3 57.9301 116.07 58.3301 118.51L63.0002 146.54L74.6901 134.69C75.6401 133.72 76.9201 133.19 78.2701 133.19C79.6301 133.19 80.9002 133.72 81.8502 134.69L93.5701 146.57L98.2402 118.52C98.6502 116.08 100.73 114.31 103.2 114.31C103.48 114.31 103.76 114.33 104.04 114.38C106.78 114.84 108.63 117.43 108.18 120.17L101.89 157.96C101.4 160.85 98.9402 162.17 96.8602 162.17Z" fill="#000000"/>
<path d="M216.54 162.17C214.46 162.17 212 160.85 211.52 157.96L205.23 120.17C204.77 117.43 206.63 114.83 209.37 114.38C209.65 114.33 209.93 114.31 210.21 114.31C212.68 114.31 214.76 116.08 215.17 118.52L219.84 146.57L231.56 134.69C232.51 133.72 233.79 133.19 235.15 133.19C236.51 133.19 237.78 133.72 238.73 134.69L250.42 146.54L255.09 118.51C255.5 116.07 257.58 114.3 260.04 114.3C260.32 114.3 260.6 114.32 260.88 114.37C262.21 114.59 263.37 115.32 264.15 116.41C264.93 117.5 265.24 118.84 265.02 120.16L258.73 157.92C258.25 160.81 255.79 162.13 253.71 162.13C252.78 162.13 251.41 161.87 250.18 160.63L235.15 145.39L220.09 160.67C218.85 161.91 217.48 162.17 216.54 162.17Z" fill="#000000"/>
<path d="M175.28 162.18C174.34 162.18 172.97 161.92 171.75 160.68L156.69 145.4L141.66 160.64C140.44 161.88 139.07 162.14 138.13 162.14C136.05 162.14 133.59 160.82 133.11 157.93L126.82 120.17C126.6 118.84 126.91 117.51 127.69 116.42C128.47 115.33 129.63 114.6 130.96 114.38C131.24 114.33 131.52 114.31 131.8 114.31C134.26 114.31 136.35 116.08 136.75 118.52L141.42 146.54L153.11 134.69C154.06 133.72 155.34 133.19 156.69 133.19C158.05 133.19 159.32 133.72 160.27 134.69L171.99 146.57L176.66 118.51C177.07 116.07 179.15 114.3 181.62 114.3C181.9 114.3 182.18 114.32 182.46 114.37C185.2 114.83 187.05 117.43 186.6 120.16L180.31 157.95C179.82 160.86 177.36 162.18 175.28 162.18Z" fill="#000000"/>
</svg>
