<svg width="282" height="530" viewBox="0 0 282 530" fill="none" xmlns="http://www.w3.org/2000/svg">
<g clip-path="url(#clip0_4001_1141)">
<path d="M3.65381 119.412H277.771V526.471H3.65381V119.412Z" fill="#CBC0AE"/>
<path fill-rule="evenodd" clip-rule="evenodd" d="M0.124512 115.882H281.301V529.999H0.124512V115.882ZM7.18333 122.941V522.94H274.242V122.941H7.18333Z" fill="black"/>
<path d="M14.2427 130H21.3015V522.94H14.2427V130Z" fill="white"/>
<path d="M27.1831 130H34.2419V522.941H27.1831V130Z" fill="white"/>
<path d="M40.1255 130H47.1843V522.941H40.1255V130Z" fill="white"/>
<path d="M53.0674 130H60.1262V522.941H53.0674V130Z" fill="white"/>
<path d="M66.0078 130H73.0666V522.941H66.0078V130Z" fill="white"/>
<path d="M78.9482 130H86.0071V522.941H78.9482V130Z" fill="white"/>
<path d="M91.8896 130H98.9485V522.941H91.8896V130Z" fill="white"/>
<path d="M104.831 130H111.89V522.941H104.831V130Z" fill="white"/>
<path d="M117.771 130H124.83V522.941H117.771V130Z" fill="white"/>
<path d="M130.713 130H137.772V522.941H130.713V130Z" fill="white"/>
<path d="M143.654 130H150.713V522.941H143.654V130Z" fill="white"/>
<path d="M156.596 130H163.655V522.941H156.596V130Z" fill="white"/>
<path d="M169.537 130H176.595V522.941H169.537V130Z" fill="white"/>
<path d="M182.478 130H189.537V522.941H182.478V130Z" fill="white"/>
<path d="M195.418 130H202.477V522.941H195.418V130Z" fill="white"/>
<path d="M208.359 130H215.418V522.941H208.359V130Z" fill="white"/>
<path d="M221.303 130H228.362V522.941H221.303V130Z" fill="white"/>
<path d="M234.242 130H241.301V522.941H234.242V130Z" fill="white"/>
<path d="M247.184 130H254.242V522.941H247.184V130Z" fill="white"/>
<path d="M260.126 130H267.185V522.941H260.126V130Z" fill="white"/>
<path fill-rule="evenodd" clip-rule="evenodd" d="M146.008 7.05908C144.708 7.05908 143.655 8.11253 143.655 9.41202V73.5272L133.655 76.7091V89.1738L128.949 90.6711V118.39L124.831 119.7V177.104L117.772 179.272V188.603L109.537 191.132V200.463L101.302 202.992V212.968L80.1253 219.48V238.26L73.0664 240.437V270.15L58.3606 274.705V341.52L51.3018 343.709V522.941H243.066V341.225L235.535 335.779V272.546L220.634 261.771H221.058V238.93L213.525 233.484V218.299L190.786 201.857L190.915 201.68L183.609 196.403V190.744L175.329 184.763V179.104L166.596 172.796V127.656L160.532 123.049V95.1007L156.122 91.9108V79.8121L148.361 74.1982V9.41202C148.361 8.11253 147.307 7.05908 146.008 7.05908Z" fill="#F2EEE3"/>
<path fill-rule="evenodd" clip-rule="evenodd" d="M126.597 84.012V71.5473L136.597 68.3654V9.41176C136.597 4.21379 140.81 0 146.008 0C151.206 0 155.42 4.21379 155.42 9.41176V70.5919L163.181 76.2057V88.3045L167.592 91.4943V119.547L173.655 124.154V169.187L182.388 175.495V181.154L190.669 187.135V192.794L200.771 200.09L200.64 200.271L220.585 214.692V229.877L228.117 235.323V258.47L242.595 268.939V332.172L250.126 337.618V522.941H44.2437V338.508L51.3025 336.319V269.501L66.0083 264.947V235.227L73.0672 233.05V214.265L94.2436 207.753V197.776L102.479 195.246V185.916L110.714 183.386V174.056L117.773 171.888V114.538L121.891 113.228V85.5094L126.597 84.012Z" fill="#F5F5F5"/>
<path fill-rule="evenodd" clip-rule="evenodd" d="M187.9 301.335L243.066 341.225V530H238.36V343.629L187.049 306.526L138.028 321.733L134.831 322.848V331.853H130.125V319.506L136.556 317.263L187.9 301.335ZM108.716 330.826L56.0076 347.177V530H51.3018V343.71L107.322 326.332L108.716 330.826Z" fill="black"/>
<path fill-rule="evenodd" clip-rule="evenodd" d="M184.496 235.639L235.535 272.544V336.475H230.829V274.949L183.643 240.829L143.066 253.396V258.822H138.36V249.948L140.961 249.121L184.496 235.639ZM111.301 258.272V268.822H106.595V264.666L92.2515 269.133L63.0657 278.172V341.181H58.3599V274.703L90.8558 264.639L111.301 258.272Z" fill="black"/>
<path fill-rule="evenodd" clip-rule="evenodd" d="M178.274 207.994L221.057 238.93V261.77H216.351V241.334L177.418 213.182L77.7718 243.91V272.358H73.0659V240.437L178.274 207.994Z" fill="black"/>
<path fill-rule="evenodd" clip-rule="evenodd" d="M174.869 190.347L213.525 218.299V234.123H208.819V220.703L174.012 195.534L84.8309 222.955V238.829H80.125V219.479L174.869 190.347Z" fill="black"/>
<path fill-rule="evenodd" clip-rule="evenodd" d="M165.453 183.289L190.915 201.679L188.159 205.494L164.596 188.475L106.008 206.47V216.471H101.302V202.992L165.453 183.289Z" fill="black"/>
<path fill-rule="evenodd" clip-rule="evenodd" d="M161.885 175.055L183.608 190.744V198.87H178.902V193.151L161.028 180.241L114.242 194.61V202.354H109.536V191.133L161.885 175.055Z" fill="black"/>
<path fill-rule="evenodd" clip-rule="evenodd" d="M161.885 175.055L182.633 190.04L179.877 193.855L161.028 180.241L114.242 194.61V203.53H109.536V191.133L161.885 175.055Z" fill="black"/>
<path fill-rule="evenodd" clip-rule="evenodd" d="M158.319 166.818L175.328 179.103V185.581H170.622V181.509L157.462 172.004L122.477 182.749V189.411H117.771V179.272L158.319 166.818Z" fill="black"/>
<path d="M194.83 322.94L199.536 326.469V529.999H194.83V322.94Z" fill="black"/>
<path d="M190.125 254.893L194.831 258.422V307.246L190.125 303.717V254.893Z" fill="black"/>
<path d="M139.538 117.646H134.832V175.588L139.538 174.117V117.646Z" fill="black"/>
<path d="M200.713 262.541L205.419 266.07V314.893L200.713 311.364V262.541Z" fill="black"/>
<path d="M143.654 9.41202C143.654 8.11253 144.707 7.05908 146.007 7.05908C147.306 7.05908 148.36 8.11253 148.36 9.41202V76.4708C148.36 77.7703 147.306 78.8237 146.007 78.8237C144.707 78.8237 143.654 77.7703 143.654 76.4708V9.41202Z" fill="black"/>
<path d="M211.301 270.186L216.007 273.715V322.539L211.301 319.009V270.186Z" fill="black"/>
<path d="M153.066 120H157.772V171.471L153.066 172.941V120Z" fill="black"/>
<path d="M184.831 224.304L189.537 227.834V241.363L184.831 237.834V224.304Z" fill="black"/>
<path d="M195.417 231.951L200.123 235.48V249.01L195.417 245.48V231.951Z" fill="black"/>
<path d="M206.006 239.598L210.712 243.127V256.657L206.006 253.127V239.598Z" fill="black"/>
<path d="M178.948 204.894L183.654 208.424V216.071L178.948 212.541V204.894Z" fill="black"/>
<path d="M189.536 212.54L194.242 216.069V223.716L189.536 220.187V212.54Z" fill="black"/>
<path d="M200.124 220.188L204.83 223.717V231.364L200.124 227.835V220.188Z" fill="black"/>
<path d="M221.89 277.835L226.596 281.364V330.188L221.89 326.658V277.835Z" fill="black"/>
<path d="M183.066 302.941L187.772 301.471V530H183.066V302.941Z" fill="black"/>
<path d="M205.419 330.588L210.125 334.117V530H205.419V330.588Z" fill="black"/>
<path d="M216.008 338.235L220.714 341.765V530H216.008V338.235Z" fill="black"/>
<path d="M149.537 327.648L144.831 329.118V337.942L149.537 336.471V327.648Z" fill="black"/>
<path d="M149.537 340.294L144.831 341.765V350.589L149.537 349.118V340.294Z" fill="black"/>
<path d="M149.537 352.94L144.831 354.41V363.234L149.537 361.763V352.94Z" fill="black"/>
<path d="M149.537 365.588L144.831 367.059V375.882L149.537 374.412V365.588Z" fill="black"/>
<path d="M149.537 378.234L144.831 379.705V388.528L149.537 387.058V378.234Z" fill="black"/>
<path d="M149.537 390.882L144.831 392.353V401.176L149.537 399.706V390.882Z" fill="black"/>
<path d="M149.537 403.528L144.831 404.999V413.822L149.537 412.351V403.528Z" fill="black"/>
<path d="M149.537 416.176L144.831 417.646V426.47L149.537 424.999V416.176Z" fill="black"/>
<path d="M149.537 428.823L144.831 430.293V439.117L149.537 437.646V428.823Z" fill="black"/>
<path d="M149.537 441.47L144.831 442.941V451.765L149.537 450.294V441.47Z" fill="black"/>
<path d="M149.537 454.117L144.831 455.588V464.411L149.537 462.941V454.117Z" fill="black"/>
<path d="M149.537 466.765L144.831 468.236V477.059L149.537 475.589V466.765Z" fill="black"/>
<path d="M149.537 479.412L144.831 480.882V489.706L149.537 488.235V479.412Z" fill="black"/>
<path d="M149.537 492.059L144.831 493.529V502.353L149.537 500.882V492.059Z" fill="black"/>
<path d="M149.537 504.705L144.831 506.176V514.999L149.537 513.529V504.705Z" fill="black"/>
<path d="M149.537 517.353L144.831 518.824V527.647L149.537 526.177V517.353Z" fill="black"/>
<path d="M122.478 235.883L117.772 237.354V246.177L122.478 244.707V235.883Z" fill="black"/>
<path d="M122.478 248.529L117.772 250V258.823L122.478 257.353V248.529Z" fill="black"/>
<path d="M122.478 261.177L117.772 262.647V271.471L122.478 270V261.177Z" fill="black"/>
<path d="M122.478 273.824L117.772 275.294V284.118L122.478 282.647V273.824Z" fill="black"/>
<path d="M122.478 286.47L117.772 287.941V296.765L122.478 295.294V286.47Z" fill="black"/>
<path d="M122.478 299.117L117.772 300.588V309.411L122.478 307.941V299.117Z" fill="black"/>
<path d="M122.478 311.765L117.772 313.236V322.059L122.478 320.589V311.765Z" fill="black"/>
<path d="M122.478 324.411L117.772 325.881V334.705L122.478 333.234V324.411Z" fill="black"/>
<path d="M122.478 337.059L117.772 338.529V347.353L122.478 345.882V337.059Z" fill="black"/>
<path d="M122.478 349.705L117.772 351.175V359.999L122.478 358.528V349.705Z" fill="black"/>
<path d="M122.478 362.353L117.772 363.824V372.647L122.478 371.177V362.353Z" fill="black"/>
<path d="M122.478 375L117.772 376.47V385.294L122.478 383.823V375Z" fill="black"/>
<path d="M122.478 387.647L117.772 389.118V397.941L122.478 396.471V387.647Z" fill="black"/>
<path d="M122.478 400.293L117.772 401.764V410.587L122.478 409.117V400.293Z" fill="black"/>
<path d="M122.478 412.941L117.772 414.412V423.235L122.478 421.764V412.941Z" fill="black"/>
<path d="M122.478 425.587L117.772 427.057V435.881L122.478 434.41V425.587Z" fill="black"/>
<path d="M122.478 438.236L117.772 439.706V448.53L122.478 447.059V438.236Z" fill="black"/>
<path d="M122.478 450.881L117.772 452.352V461.175L122.478 459.705V450.881Z" fill="black"/>
<path d="M122.478 463.53L117.772 465.001V473.824L122.478 472.354V463.53Z" fill="black"/>
<path d="M122.478 476.175L117.772 477.646V486.469L122.478 484.998V476.175Z" fill="black"/>
<path d="M122.478 488.824L117.772 490.294V499.118L122.478 497.647V488.824Z" fill="black"/>
<path d="M122.478 501.469L117.772 502.94V511.764L122.478 510.293V501.469Z" fill="black"/>
<path d="M122.478 514.117L117.772 515.588V524.411L122.478 522.941V514.117Z" fill="black"/>
<path d="M111.302 239.413L106.596 240.883V249.707L111.302 248.236V239.413Z" fill="black"/>
<path d="M111.302 252.06L106.596 253.53V262.354L111.302 260.883V252.06Z" fill="black"/>
<path d="M133.655 232.352L128.949 233.822V242.646L133.655 241.175V232.352Z" fill="black"/>
<path d="M133.655 245L128.949 246.471V255.295L133.655 253.824V245Z" fill="black"/>
<path d="M133.655 257.646L128.949 259.117V267.94L133.655 266.47V257.646Z" fill="black"/>
<path d="M133.655 270.295L128.949 271.766V280.589L133.655 279.119V270.295Z" fill="black"/>
<path d="M133.655 282.942L128.949 284.412V293.236L133.655 291.765V282.942Z" fill="black"/>
<path d="M133.655 295.589L128.949 297.059V305.883L133.655 304.412V295.589Z" fill="black"/>
<path d="M133.655 308.235L128.949 309.706V318.53L133.655 317.059V308.235Z" fill="black"/>
<path d="M133.655 320.882L128.949 322.353V331.176L133.655 329.706V320.882Z" fill="black"/>
<path d="M133.655 333.53L128.949 335V343.824L133.655 342.353V333.53Z" fill="black"/>
<path d="M133.655 346.176L128.949 347.647V356.471L133.655 355V346.176Z" fill="black"/>
<path d="M133.655 358.824L128.949 360.295V369.118L133.655 367.648V358.824Z" fill="black"/>
<path d="M133.655 371.47L128.949 372.941V381.764L133.655 380.293V371.47Z" fill="black"/>
<path d="M133.655 384.117L128.949 385.587V394.411L133.655 392.94V384.117Z" fill="black"/>
<path d="M133.655 396.765L128.949 398.235V407.059L133.655 405.588V396.765Z" fill="black"/>
<path d="M133.655 409.411L128.949 410.882V419.705L133.655 418.235V409.411Z" fill="black"/>
<path d="M133.655 422.059L128.949 423.53V432.353L133.655 430.883V422.059Z" fill="black"/>
<path d="M133.655 434.706L128.949 436.177V445L133.655 443.53V434.706Z" fill="black"/>
<path d="M133.655 447.353L128.949 448.823V457.647L133.655 456.176V447.353Z" fill="black"/>
<path d="M133.655 459.999L128.949 461.469V470.293L133.655 468.822V459.999Z" fill="black"/>
<path d="M133.655 472.647L128.949 474.118V482.942L133.655 481.471V472.647Z" fill="black"/>
<path d="M133.655 485.293L128.949 486.764V495.587L133.655 494.117V485.293Z" fill="black"/>
<path d="M133.655 497.941L128.949 499.412V508.235L133.655 506.764V497.941Z" fill="black"/>
<path d="M133.655 510.589L128.949 512.059V520.883L133.655 519.412V510.589Z" fill="black"/>
<path d="M145.419 228.824L140.713 230.295V239.118L145.419 237.648V228.824Z" fill="black"/>
<path d="M145.419 241.471L140.713 242.942V251.765L145.419 250.294V241.471Z" fill="black"/>
<path d="M156.594 225.294L151.888 226.764V247.352L156.594 245.882V225.294Z" fill="black"/>
<path d="M145.419 228.824L140.713 230.295V250.883L145.419 249.412V228.824Z" fill="black"/>
<path d="M133.655 232.352L128.949 233.822V254.41L133.655 252.94V232.352Z" fill="black"/>
<path d="M122.478 235.883L117.772 237.354V257.942L122.478 256.471V235.883Z" fill="black"/>
<path d="M111.302 239.413L106.596 240.883V261.472L111.302 260.001V239.413Z" fill="black"/>
<path d="M145.419 210L140.713 211.471V223.236L145.419 221.765V210Z" fill="black"/>
<path d="M133.655 213.53L128.949 215V227.353L133.655 225.883V213.53Z" fill="black"/>
<path d="M122.478 217.058L117.772 218.529V230.294L122.478 228.823V217.058Z" fill="black"/>
<path d="M111.302 220.589L106.596 222.059V233.824L111.302 232.354V220.589Z" fill="black"/>
<path d="M100.125 242.353L95.4185 243.823V264.412L100.125 262.941V242.353Z" fill="black"/>
<path d="M88.948 245.293L84.2422 246.764V267.352L88.948 265.881V245.293Z" fill="black"/>
<path d="M167.771 222.353L163.066 223.824V244.412L167.771 242.942V222.353Z" fill="black"/>
<path d="M100.125 242.353L95.4185 243.823V264.412L100.125 262.941V242.353Z" fill="black"/>
<path d="M88.948 245.293L84.2422 246.764V267.352L88.948 265.881V245.293Z" fill="black"/>
<path d="M156.594 206.471L151.888 207.941V219.118L156.594 217.647V206.471Z" fill="black"/>
<path d="M100.125 223.529L95.4185 225V237.353L100.125 235.882V223.529Z" fill="black"/>
<path d="M70.7132 351.952L66.0073 353.423V362.246L70.7132 360.776V351.952Z" fill="black"/>
<path d="M70.7132 364.599L66.0073 366.069V374.893L70.7132 373.422V364.599Z" fill="black"/>
<path d="M70.7132 377.247L66.0073 378.717V387.541L70.7132 386.07V377.247Z" fill="black"/>
<path d="M70.7132 389.893L66.0073 391.363V400.187L70.7132 398.716V389.893Z" fill="black"/>
<path d="M70.7132 402.54L66.0073 404.011V412.834L70.7132 411.364V402.54Z" fill="black"/>
<path d="M70.7132 415.186L66.0073 416.657V425.48L70.7132 424.01V415.186Z" fill="black"/>
<path d="M70.7132 427.835L66.0073 429.306V438.129L70.7132 436.658V427.835Z" fill="black"/>
<path d="M70.7132 440.481L66.0073 441.951V450.775L70.7132 449.304V440.481Z" fill="black"/>
<path d="M70.7132 453.13L66.0073 454.6V463.424L70.7132 461.953V453.13Z" fill="black"/>
<path d="M70.7132 465.774L66.0073 467.245V476.068L70.7132 474.598V465.774Z" fill="black"/>
<path d="M70.7132 478.423L66.0073 479.894V488.717L70.7132 487.247V478.423Z" fill="black"/>
<path d="M70.7132 491.068L66.0073 492.539V501.362L70.7132 499.892V491.068Z" fill="black"/>
<path d="M70.7132 503.717L66.0073 505.187V514.011L70.7132 512.54V503.717Z" fill="black"/>
<path d="M70.7132 516.363L66.0073 517.834V526.657L70.7132 525.187V516.363Z" fill="black"/>
<path d="M161.301 323.94L156.595 325.411V334.234L161.301 332.764V323.94Z" fill="black"/>
<path d="M161.301 336.589L156.595 338.06V346.883L161.301 345.413V336.589Z" fill="black"/>
<path d="M161.301 349.235L156.595 350.705V359.529L161.301 358.058V349.235Z" fill="black"/>
<path d="M161.301 361.883L156.595 363.353V372.177L161.301 370.706V361.883Z" fill="black"/>
<path d="M161.301 374.529L156.595 376V384.824L161.301 383.353V374.529Z" fill="black"/>
<path d="M161.301 387.177L156.595 388.648V397.471L161.301 396.001V387.177Z" fill="black"/>
<path d="M161.301 399.823L156.595 401.294V410.117L161.301 408.647V399.823Z" fill="black"/>
<path d="M161.301 412.47L156.595 413.94V422.764L161.301 421.293V412.47Z" fill="black"/>
<path d="M161.301 425.118L156.595 426.588V435.412L161.301 433.941V425.118Z" fill="black"/>
<path d="M161.301 437.764L156.595 439.235V448.059L161.301 446.588V437.764Z" fill="black"/>
<path d="M161.301 450.412L156.595 451.883V460.706L161.301 459.236V450.412Z" fill="black"/>
<path d="M161.301 463.059L156.595 464.53V473.353L161.301 471.883V463.059Z" fill="black"/>
<path d="M161.301 475.706L156.595 477.176V486L161.301 484.529V475.706Z" fill="black"/>
<path d="M161.301 488.353L156.595 489.823V498.647L161.301 497.176V488.353Z" fill="black"/>
<path d="M161.301 501L156.595 502.47V511.294L161.301 509.823V501Z" fill="black"/>
<path d="M161.301 513.647L156.595 515.117V523.941L161.301 522.47V513.647Z" fill="black"/>
<path d="M82.4784 348.247L77.7725 349.717V358.541L82.4784 357.07V348.247Z" fill="black"/>
<path d="M82.4784 360.892L77.7725 362.363V371.187L82.4784 369.716V360.892Z" fill="black"/>
<path d="M82.4784 373.54L77.7725 375.011V383.834L82.4784 382.364V373.54Z" fill="black"/>
<path d="M82.4784 386.187L77.7725 387.658V396.481L82.4784 395.011V386.187Z" fill="black"/>
<path d="M82.4784 398.834L77.7725 400.304V409.128L82.4784 407.657V398.834Z" fill="black"/>
<path d="M82.4784 411.481L77.7725 412.951V421.775L82.4784 420.304V411.481Z" fill="black"/>
<path d="M82.4784 424.13L77.7725 425.6V434.424L82.4784 432.953V424.13Z" fill="black"/>
<path d="M82.4784 436.774L77.7725 438.245V447.068L82.4784 445.598V436.774Z" fill="black"/>
<path d="M82.4784 449.423L77.7725 450.894V459.717L82.4784 458.247V449.423Z" fill="black"/>
<path d="M82.4784 462.069L77.7725 463.539V472.363L82.4784 470.892V462.069Z" fill="black"/>
<path d="M82.4784 474.716L77.7725 476.186V485.01L82.4784 483.539V474.716Z" fill="black"/>
<path d="M82.4784 487.364L77.7725 488.834V497.658L82.4784 496.187V487.364Z" fill="black"/>
<path d="M82.4784 500.01L77.7725 501.481V510.304L82.4784 508.834V500.01Z" fill="black"/>
<path d="M82.4784 512.658L77.7725 514.129V522.952L82.4784 521.482V512.658Z" fill="black"/>
<path d="M173.065 320.294L168.36 321.765V330.589L173.065 329.118V320.294Z" fill="black"/>
<path d="M173.065 332.94L168.36 334.411V343.234L173.065 341.764V332.94Z" fill="black"/>
<path d="M173.065 345.589L168.36 347.06V355.883L173.065 354.413V345.589Z" fill="black"/>
<path d="M173.065 358.235L168.36 359.705V368.529L173.065 367.058V358.235Z" fill="black"/>
<path d="M173.065 370.883L168.36 372.353V381.177L173.065 379.706V370.883Z" fill="black"/>
<path d="M173.065 383.528L168.36 384.999V393.823L173.065 392.352V383.528Z" fill="black"/>
<path d="M173.065 396.177L168.36 397.648V406.471L173.065 405.001V396.177Z" fill="black"/>
<path d="M173.065 408.823L168.36 410.294V419.117L173.065 417.647V408.823Z" fill="black"/>
<path d="M173.065 421.471L168.36 422.941V431.765L173.065 430.294V421.471Z" fill="black"/>
<path d="M173.065 434.118L168.36 435.588V444.412L173.065 442.941V434.118Z" fill="black"/>
<path d="M173.065 446.764L168.36 448.235V457.059L173.065 455.588V446.764Z" fill="black"/>
<path d="M173.065 459.412L168.36 460.883V469.706L173.065 468.236V459.412Z" fill="black"/>
<path d="M173.065 472.058L168.36 473.529V482.352L173.065 480.882V472.058Z" fill="black"/>
<path d="M173.065 484.706L168.36 486.176V495L173.065 493.529V484.706Z" fill="black"/>
<path d="M173.065 497.352L168.36 498.822V507.646L173.065 506.175V497.352Z" fill="black"/>
<path d="M173.065 510L168.36 511.471V520.295L173.065 518.824V510Z" fill="black"/>
<path d="M94.242 344.599L89.5361 346.07V354.893L94.242 353.423V344.599Z" fill="black"/>
<path d="M94.242 357.247L89.5361 358.718V367.541L94.242 366.071V357.247Z" fill="black"/>
<path d="M94.242 369.893L89.5361 371.364V380.187L94.242 378.716V369.893Z" fill="black"/>
<path d="M94.242 382.541L89.5361 384.011V392.835L94.242 391.364V382.541Z" fill="black"/>
<path d="M94.242 395.187L89.5361 396.658V405.481L94.242 404.011V395.187Z" fill="black"/>
<path d="M94.242 407.835L89.5361 409.306V418.13L94.242 416.659V407.835Z" fill="black"/>
<path d="M94.242 420.481L89.5361 421.951V430.775L94.242 429.304V420.481Z" fill="black"/>
<path d="M94.242 433.127L89.5361 434.598V443.422L94.242 441.951V433.127Z" fill="black"/>
<path d="M94.242 445.774L89.5361 447.245V456.068L94.242 454.598V445.774Z" fill="black"/>
<path d="M94.242 458.423L89.5361 459.894V468.717L94.242 467.247V458.423Z" fill="black"/>
<path d="M94.242 471.069L89.5361 472.539V481.363L94.242 479.892V471.069Z" fill="black"/>
<path d="M94.242 483.717L89.5361 485.187V494.011L94.242 492.54V483.717Z" fill="black"/>
<path d="M94.242 496.364L89.5361 497.834V506.658L94.242 505.187V496.364Z" fill="black"/>
<path d="M94.242 509.011L89.5361 510.482V519.305L94.242 517.835V509.011Z" fill="black"/>
<path d="M94.2424 521.657L89.5332 523.129V529.604L94.2424 528.132V521.657Z" fill="black"/>
<path d="M226.595 345.881L231.301 349.41V529.998H226.595V345.881Z" fill="black"/>
<path d="M130.125 319.999L134.83 318.528V529.999H130.125V319.999Z" fill="black"/>
<path d="M104.243 328.528L108.949 327.058V529.999H104.243V328.528Z" fill="black"/>
<path d="M108.948 328.528L113.654 327.058V529.705H108.948V328.528Z" fill="black"/>
<path d="M101.89 263.529L106.596 262.059V330H101.89V263.529Z" fill="black"/>
<path d="M106.595 263.529L111.301 262.059V330H106.595V263.529Z" fill="black"/>
<path d="M138.361 251.764L143.067 250.293V318.234H138.361V251.764Z" fill="black"/>
<path d="M178.948 238.823L183.654 237.353V305.294H178.948V238.823Z" fill="black"/>
<path d="M173.065 210.587L177.771 209.117V241.764H173.065V210.587Z" fill="black"/>
<path d="M169.537 192.941L174.243 191.47V212.352H169.537V192.941Z" fill="black"/>
<path d="M84.8313 280.374L80.1255 281.845V290.668L84.8313 289.198V280.374Z" fill="black"/>
<path d="M84.8313 293.021L80.1255 294.492V303.315L84.8313 301.845V293.021Z" fill="black"/>
<path d="M84.8313 305.669L80.1255 307.139V315.963L84.8313 314.492V305.669Z" fill="black"/>
<path d="M84.8313 318.317L80.1255 319.787V328.611L84.8313 327.14V318.317Z" fill="black"/>
<path d="M163.653 255.669L158.947 257.14V265.964L163.653 264.493V255.669Z" fill="black"/>
<path d="M163.653 268.316L158.947 269.786V278.61L163.653 277.139V268.316Z" fill="black"/>
<path d="M163.653 280.964L158.947 282.435V291.258L163.653 289.788V280.964Z" fill="black"/>
<path d="M163.653 293.609L158.947 295.08V303.903L163.653 302.433V293.609Z" fill="black"/>
<path d="M75.4192 283.315L70.7134 284.786V293.61L75.4192 292.139V283.315Z" fill="black"/>
<path d="M75.4192 295.963L70.7134 297.434V306.257L75.4192 304.787V295.963Z" fill="black"/>
<path d="M75.4192 308.609L70.7134 310.08V318.903L75.4192 317.433V308.609Z" fill="black"/>
<path d="M75.4192 321.258L70.7134 322.728V331.552L75.4192 330.081V321.258Z" fill="black"/>
<path d="M154.241 258.609L149.535 260.08V268.903L154.241 267.433V258.609Z" fill="black"/>
<path d="M154.241 271.257L149.535 272.728V281.551L154.241 280.08V271.257Z" fill="black"/>
<path d="M154.241 283.903L149.535 285.373V294.197L154.241 292.726V283.903Z" fill="black"/>
<path d="M154.241 296.551L149.535 298.021V306.845L154.241 305.374V296.551Z" fill="black"/>
<path d="M94.242 277.139L89.5361 278.61V287.434L94.242 285.963V277.139Z" fill="black"/>
<path d="M94.242 289.786L89.5361 291.257V300.08L94.242 298.61V289.786Z" fill="black"/>
<path d="M94.242 302.434L89.5361 303.905V312.728L94.242 311.257V302.434Z" fill="black"/>
<path d="M94.242 315.081L89.5361 316.551V325.375L94.242 323.904V315.081Z" fill="black"/>
<path d="M173.065 252.824L168.36 254.294V263.118L173.065 261.647V252.824Z" fill="black"/>
<path d="M173.065 265.471L168.36 266.941V275.765L173.065 274.294V265.471Z" fill="black"/>
<path d="M173.065 278.117L168.36 279.588V288.412L173.065 286.941V278.117Z" fill="black"/>
<path d="M173.065 290.765L168.36 292.235V301.059L173.065 299.588V290.765Z" fill="black"/>
<path fill-rule="evenodd" clip-rule="evenodd" d="M146.889 112.681L166.596 127.656V176.176H161.89V129.99L148.791 120.037V172.108H144.085V118.511L129.537 123.14V178.235H124.831V119.699L146.889 112.681Z" fill="black"/>
<path fill-rule="evenodd" clip-rule="evenodd" d="M146.63 98.5748L160.532 108.63V123.85H155.826V111.034L148.566 105.783V115.844H143.86V104.395L133.655 107.642V120.589H128.949V104.201L146.63 98.5748Z" fill="black"/>
<path fill-rule="evenodd" clip-rule="evenodd" d="M146.63 85.045L160.532 95.1005V112.674H155.826V97.5045L148.566 92.2529V114.079H143.86V90.8649L133.655 94.1119V118.823H128.949V90.6709L146.63 85.045Z" fill="black"/>
<path fill-rule="evenodd" clip-rule="evenodd" d="M146.279 72.693L156.123 79.8127V95.5955L145.586 89.5253L133.655 93.3216V76.7097L146.279 72.693ZM148.215 85.6086L151.417 87.4533V82.2168L148.215 79.9008V85.6086ZM143.509 78.5128V85.248L138.361 86.8859V80.1507L143.509 78.5128Z" fill="black"/>
</g>
<defs>
<clipPath id="clip0_4001_1141">
<rect width="282" height="530" fill="white"/>
</clipPath>
</defs>
</svg>
